<svg width="1440" height="720" viewBox="0 0 1440 720" fill="none" xmlns="http://www.w3.org/2000/svg">
<path d="M697.214 228.682C696.299 228.682 695.515 228.472 694.862 228.052C694.218 227.623 693.765 227.03 693.504 226.274L694.624 225.63C694.997 226.815 695.87 227.408 697.242 227.408C697.905 227.408 698.413 227.273 698.768 227.002C699.132 226.731 699.314 226.363 699.314 225.896C699.314 225.439 699.137 225.089 698.782 224.846C698.465 224.631 697.872 224.384 697.004 224.104L696.066 223.796C695.861 223.712 695.59 223.591 695.254 223.432C694.927 223.264 694.689 223.096 694.54 222.928C694.129 222.48 693.924 221.934 693.924 221.29C693.924 220.431 694.223 219.759 694.82 219.274C695.417 218.77 696.145 218.518 697.004 218.518C697.769 218.518 698.441 218.709 699.02 219.092C699.599 219.475 700.033 219.997 700.322 220.66L699.23 221.29C698.81 220.282 698.068 219.778 697.004 219.778C696.472 219.778 696.043 219.909 695.716 220.17C695.389 220.431 695.226 220.786 695.226 221.234C695.226 221.663 695.38 221.99 695.688 222.214C696.005 222.447 696.537 222.681 697.284 222.914L697.858 223.096C698.175 223.217 698.348 223.283 698.376 223.292C698.675 223.404 699.001 223.558 699.356 223.754C699.608 223.894 699.86 224.109 700.112 224.398C700.439 224.725 700.602 225.215 700.602 225.868C700.602 226.727 700.289 227.413 699.664 227.926C699.029 228.43 698.213 228.682 697.214 228.682ZM703.377 224.16V227.268H707.927V228.5H702.075V218.7H707.857V219.932H703.377V222.942H707.507V224.16H703.377ZM716.751 228.5H715.309L713.111 224.748H710.801V228.5H709.499V218.7H713.419C714.259 218.7 714.978 218.999 715.575 219.596C716.173 220.184 716.471 220.898 716.471 221.738C716.471 222.373 716.28 222.951 715.897 223.474C715.505 224.006 715.02 224.375 714.441 224.58L716.751 228.5ZM713.419 219.918H710.801V223.572H713.419C713.905 223.572 714.315 223.395 714.651 223.04C714.997 222.685 715.169 222.251 715.169 221.738C715.169 221.225 714.997 220.795 714.651 220.45C714.315 220.095 713.905 219.918 713.419 219.918ZM721.939 228.5H720.469L716.969 218.7H718.369L721.211 226.876L724.039 218.7H725.453L721.939 228.5ZM726.603 228.5V218.7H727.905V228.5H726.603ZM734.613 228.682C733.12 228.682 731.892 228.192 730.931 227.212C729.97 226.241 729.489 225.037 729.489 223.6C729.489 222.163 729.97 220.959 730.931 219.988C731.892 219.008 733.12 218.518 734.613 218.518C735.5 218.518 736.321 218.733 737.077 219.162C737.833 219.591 738.421 220.17 738.841 220.898L737.707 221.556C737.427 221.015 737.007 220.585 736.447 220.268C735.896 219.941 735.285 219.778 734.613 219.778C733.474 219.778 732.55 220.142 731.841 220.87C731.132 221.589 730.777 222.499 730.777 223.6C730.777 224.692 731.132 225.597 731.841 226.316C732.55 227.044 733.474 227.408 734.613 227.408C735.285 227.408 735.896 227.249 736.447 226.932C737.007 226.605 737.427 226.176 737.707 225.644L738.841 226.288C738.43 227.016 737.847 227.599 737.091 228.038C736.344 228.467 735.518 228.682 734.613 228.682ZM741.618 224.16V227.268H746.168V228.5H740.316V218.7H746.098V219.932H741.618V222.942H745.748V224.16H741.618Z" fill="white"/>
<path d="M463.05 301.5H456.4L446.5 266.5H452.55L459.9 293.85L467.85 266.5H473.15L481.05 293.85L488.4 266.5H494.45L484.55 301.5H477.9L470.5 275.95L463.05 301.5ZM519.773 291.3H499.873C500.273 293.167 501.173 294.617 502.573 295.65C504.006 296.683 505.773 297.2 507.873 297.2C510.706 297.2 512.856 296.167 514.323 294.1L518.773 296.7C516.339 300.333 512.689 302.15 507.823 302.15C503.789 302.15 500.506 300.917 497.973 298.45C495.473 295.95 494.223 292.8 494.223 289C494.223 285.3 495.456 282.183 497.923 279.65C500.356 277.117 503.523 275.85 507.423 275.85C511.056 275.85 514.056 277.133 516.423 279.7C518.789 282.267 519.973 285.383 519.973 289.05C519.973 289.717 519.906 290.467 519.773 291.3ZM499.823 286.9H514.523C514.156 284.933 513.323 283.417 512.023 282.35C510.756 281.283 509.206 280.75 507.373 280.75C505.373 280.75 503.706 281.3 502.373 282.4C501.039 283.5 500.189 285 499.823 286.9ZM544.378 280.05V266.5H549.778V301.5H544.378V297.9C542.344 300.733 539.428 302.15 535.628 302.15C532.194 302.15 529.261 300.883 526.828 298.35C524.394 295.817 523.178 292.7 523.178 289C523.178 285.3 524.394 282.183 526.828 279.65C529.261 277.117 532.194 275.85 535.628 275.85C539.428 275.85 542.344 277.25 544.378 280.05ZM530.828 294.75C532.328 296.25 534.211 297 536.478 297C538.744 297 540.628 296.25 542.128 294.75C543.628 293.217 544.378 291.3 544.378 289C544.378 286.7 543.628 284.8 542.128 283.3C540.628 281.767 538.744 281 536.478 281C534.211 281 532.328 281.767 530.828 283.3C529.328 284.8 528.578 286.7 528.578 289C528.578 291.267 529.328 293.183 530.828 294.75ZM575.872 280.05V266.5H581.272V301.5H575.872V297.9C573.839 300.733 570.922 302.15 567.122 302.15C563.689 302.15 560.755 300.883 558.322 298.35C555.889 295.817 554.672 292.7 554.672 289C554.672 285.3 555.889 282.183 558.322 279.65C560.755 277.117 563.689 275.85 567.122 275.85C570.922 275.85 573.839 277.25 575.872 280.05ZM562.322 294.75C563.822 296.25 565.705 297 567.972 297C570.239 297 572.122 296.25 573.622 294.75C575.122 293.217 575.872 291.3 575.872 289C575.872 286.7 575.122 284.8 573.622 283.3C572.122 281.767 570.239 281 567.972 281C565.705 281 563.822 281.767 562.322 283.3C560.822 284.8 560.072 286.7 560.072 289C560.072 291.267 560.822 293.183 562.322 294.75ZM592.666 271.75C591.999 272.417 591.199 272.75 590.266 272.75C589.333 272.75 588.516 272.417 587.816 271.75C587.149 271.05 586.816 270.233 586.816 269.3C586.816 268.367 587.149 267.567 587.816 266.9C588.483 266.2 589.299 265.85 590.266 265.85C591.233 265.85 592.049 266.2 592.716 266.9C593.383 267.567 593.716 268.367 593.716 269.3C593.716 270.233 593.366 271.05 592.666 271.75ZM592.966 301.5H587.566V276.5H592.966V301.5ZM612.386 275.85C615.286 275.85 617.603 276.783 619.336 278.65C621.103 280.483 621.986 282.983 621.986 286.15V301.5H616.586V286.7C616.586 284.833 616.086 283.4 615.086 282.4C614.086 281.4 612.719 280.9 610.986 280.9C609.019 280.9 607.469 281.517 606.336 282.75C605.203 283.95 604.636 285.733 604.636 288.1V301.5H599.236V276.5H604.636V279.7C606.303 277.133 608.886 275.85 612.386 275.85ZM647.7 280.2V276.5H653V300.35C653 304.15 651.75 307.067 649.25 309.1C646.784 311.133 643.75 312.15 640.15 312.15C634.384 312.15 630.434 310.133 628.3 306.1L632.95 303.4C634.25 305.967 636.684 307.25 640.25 307.25C642.584 307.25 644.4 306.633 645.7 305.4C647.034 304.2 647.7 302.517 647.7 300.35V297.3C645.667 300.2 642.767 301.65 639 301.65C635.5 301.65 632.517 300.4 630.05 297.9C627.617 295.367 626.4 292.317 626.4 288.75C626.4 285.15 627.617 282.117 630.05 279.65C632.484 277.117 635.467 275.85 639 275.85C642.767 275.85 645.667 277.3 647.7 280.2ZM634.05 294.35C635.584 295.85 637.484 296.6 639.75 296.6C642.017 296.6 643.9 295.85 645.4 294.35C646.934 292.85 647.7 290.983 647.7 288.75C647.7 286.517 646.934 284.65 645.4 283.15C643.9 281.65 642.017 280.9 639.75 280.9C637.484 280.9 635.584 281.65 634.05 283.15C632.55 284.65 631.8 286.517 631.8 288.75C631.8 290.983 632.55 292.85 634.05 294.35ZM696.345 294.8L700.895 299.75L696.245 302.45L692.895 298.85C690.128 301.05 686.878 302.15 683.145 302.15C679.578 302.15 676.678 301.233 674.445 299.4C672.245 297.533 671.145 295.033 671.145 291.9C671.145 289.767 671.678 287.833 672.745 286.1C673.811 284.333 675.328 282.917 677.295 281.85C675.961 280.017 675.295 277.983 675.295 275.75C675.295 272.817 676.311 270.433 678.345 268.6C680.378 266.767 682.911 265.85 685.945 265.85C688.378 265.85 690.561 266.5 692.495 267.8C694.428 269.067 695.845 270.85 696.745 273.15L691.845 275.95C691.378 274.55 690.628 273.45 689.595 272.65C688.561 271.85 687.361 271.45 685.995 271.45C684.561 271.45 683.378 271.867 682.445 272.7C681.511 273.533 681.045 274.6 681.045 275.9C681.045 276.6 681.195 277.3 681.495 278C681.928 279.033 682.778 280.2 684.045 281.5L692.545 290.7C693.378 289 693.978 286.967 694.345 284.6L699.245 287.4C698.645 290.2 697.678 292.667 696.345 294.8ZM683.445 296.8C685.678 296.8 687.611 296.183 689.245 294.95L680.645 285.7C678.178 286.967 676.945 288.883 676.945 291.45C676.945 293.083 677.511 294.383 678.645 295.35C679.778 296.317 681.378 296.8 683.445 296.8ZM723.793 286.55V296H739.293V301.5H718.043V266.5H739.043V272H723.793V281.1H737.793V286.55H723.793ZM754.207 295.5L761.157 276.5H767.057L757.307 301.5H751.057L741.307 276.5H747.207L754.207 295.5ZM793.65 291.3H773.75C774.15 293.167 775.05 294.617 776.45 295.65C777.883 296.683 779.65 297.2 781.75 297.2C784.583 297.2 786.733 296.167 788.2 294.1L792.65 296.7C790.216 300.333 786.566 302.15 781.7 302.15C777.666 302.15 774.383 300.917 771.85 298.45C769.35 295.95 768.1 292.8 768.1 289C768.1 285.3 769.333 282.183 771.8 279.65C774.233 277.117 777.4 275.85 781.3 275.85C784.933 275.85 787.933 277.133 790.3 279.7C792.666 282.267 793.85 285.383 793.85 289.05C793.85 289.717 793.783 290.467 793.65 291.3ZM773.7 286.9H788.4C788.033 284.933 787.2 283.417 785.9 282.35C784.633 281.283 783.083 280.75 781.25 280.75C779.25 280.75 777.583 281.3 776.25 282.4C774.916 283.5 774.066 285 773.7 286.9ZM811.751 275.85C814.651 275.85 816.968 276.783 818.701 278.65C820.468 280.483 821.351 282.983 821.351 286.15V301.5H815.951V286.7C815.951 284.833 815.451 283.4 814.451 282.4C813.451 281.4 812.085 280.9 810.351 280.9C808.385 280.9 806.835 281.517 805.701 282.75C804.568 283.95 804.001 285.733 804.001 288.1V301.5H798.601V276.5H804.001V279.7C805.668 277.133 808.251 275.85 811.751 275.85ZM841.116 276.5V281.7H834.916V293.7C834.916 294.733 835.149 295.483 835.616 295.95C836.082 296.383 836.766 296.633 837.666 296.7C838.599 296.733 839.749 296.717 841.116 296.65V301.5C836.982 302 834.016 301.65 832.216 300.45C830.416 299.217 829.516 296.967 829.516 293.7V281.7H824.916V276.5H829.516V271.1L834.916 269.5V276.5H841.116ZM859.107 266.5H872.857C877.657 266.5 881.641 268.183 884.807 271.55C888.007 274.917 889.607 279.067 889.607 284C889.607 288.9 888.007 293.05 884.807 296.45C881.641 299.817 877.657 301.5 872.857 301.5H859.107V266.5ZM864.857 296H872.857C876.157 296 878.841 294.867 880.907 292.6C883.007 290.333 884.057 287.467 884.057 284C884.057 280.533 883.007 277.667 880.907 275.4C878.841 273.133 876.157 272 872.857 272H864.857V296ZM918.65 291.3H898.75C899.15 293.167 900.05 294.617 901.45 295.65C902.883 296.683 904.65 297.2 906.75 297.2C909.583 297.2 911.733 296.167 913.2 294.1L917.65 296.7C915.216 300.333 911.566 302.15 906.7 302.15C902.666 302.15 899.383 300.917 896.85 298.45C894.35 295.95 893.1 292.8 893.1 289C893.1 285.3 894.333 282.183 896.8 279.65C899.233 277.117 902.4 275.85 906.3 275.85C909.933 275.85 912.933 277.133 915.3 279.7C917.666 282.267 918.85 285.383 918.85 289.05C918.85 289.717 918.783 290.467 918.65 291.3ZM898.7 286.9H913.4C913.033 284.933 912.2 283.417 910.9 282.35C909.633 281.283 908.083 280.75 906.25 280.75C904.25 280.75 902.583 281.3 901.25 282.4C899.916 283.5 899.066 285 898.7 286.9ZM935.255 302.15C931.488 302.15 928.338 300.883 925.805 298.35C923.305 295.783 922.055 292.667 922.055 289C922.055 285.267 923.305 282.15 925.805 279.65C928.338 277.117 931.488 275.85 935.255 275.85C937.688 275.85 939.905 276.433 941.905 277.6C943.905 278.767 945.405 280.333 946.405 282.3L941.755 285C941.188 283.8 940.321 282.867 939.155 282.2C938.021 281.5 936.705 281.15 935.205 281.15C933.005 281.15 931.155 281.9 929.655 283.4C928.188 284.933 927.455 286.8 927.455 289C927.455 291.2 928.188 293.067 929.655 294.6C931.155 296.1 933.005 296.85 935.205 296.85C936.671 296.85 937.988 296.517 939.155 295.85C940.355 295.15 941.255 294.2 941.855 293L946.505 295.65C945.438 297.65 943.888 299.233 941.855 300.4C939.855 301.567 937.655 302.15 935.255 302.15ZM971.167 298.35C968.634 300.883 965.517 302.15 961.817 302.15C958.117 302.15 955.001 300.883 952.467 298.35C949.901 295.783 948.617 292.667 948.617 289C948.617 285.333 949.901 282.217 952.467 279.65C955.001 277.117 958.117 275.85 961.817 275.85C965.517 275.85 968.634 277.117 971.167 279.65C973.734 282.217 975.017 285.333 975.017 289C975.017 292.667 973.734 295.783 971.167 298.35ZM954.017 289C954.017 291.267 954.767 293.15 956.267 294.65C957.767 296.15 959.617 296.9 961.817 296.9C964.017 296.9 965.867 296.15 967.367 294.65C968.867 293.15 969.617 291.267 969.617 289C969.617 286.733 968.867 284.85 967.367 283.35C965.867 281.85 964.017 281.1 961.817 281.1C959.617 281.1 957.767 281.85 956.267 283.35C954.767 284.85 954.017 286.733 954.017 289ZM985.3 276.5V280.7C986.667 277.6 989.233 276.05 993 276.05V281.9C990.967 281.767 989.167 282.267 987.6 283.4C986.067 284.5 985.3 286.333 985.3 288.9V301.5H979.9V276.5H985.3Z" fill="white"/>
<path d="M433.108 337.9V348.916H438.544V350.5H431.434V337.9H433.108ZM448.349 346.72H440.807C440.963 347.512 441.329 348.136 441.905 348.592C442.481 349.036 443.201 349.258 444.065 349.258C445.253 349.258 446.117 348.82 446.657 347.944L447.989 348.7C447.101 350.056 445.781 350.734 444.029 350.734C442.613 350.734 441.449 350.29 440.537 349.402C439.649 348.49 439.205 347.356 439.205 346C439.205 344.632 439.643 343.504 440.519 342.616C441.395 341.716 442.529 341.266 443.921 341.266C445.241 341.266 446.315 341.734 447.143 342.67C447.983 343.582 448.403 344.698 448.403 346.018C448.403 346.246 448.385 346.48 448.349 346.72ZM443.921 342.742C443.093 342.742 442.397 342.976 441.833 343.444C441.281 343.912 440.939 344.548 440.807 345.352H446.819C446.687 344.524 446.357 343.882 445.829 343.426C445.301 342.97 444.665 342.742 443.921 342.742ZM454.836 341.5V343.012H452.442V347.89C452.442 348.334 452.526 348.652 452.694 348.844C452.874 349.024 453.144 349.12 453.504 349.132C453.864 349.132 454.308 349.12 454.836 349.096V350.5C453.456 350.68 452.448 350.566 451.812 350.158C451.188 349.75 450.876 348.994 450.876 347.89V343.012H449.094V341.5H450.876V339.448L452.442 338.98V341.5H454.836ZM468.839 349.366C467.927 350.278 466.805 350.734 465.473 350.734C464.141 350.734 463.019 350.278 462.107 349.366C461.195 348.454 460.739 347.332 460.739 346C460.739 344.668 461.195 343.546 462.107 342.634C463.019 341.722 464.141 341.266 465.473 341.266C466.805 341.266 467.927 341.722 468.839 342.634C469.763 343.558 470.225 344.68 470.225 346C470.225 347.32 469.763 348.442 468.839 349.366ZM465.473 349.204C466.373 349.204 467.129 348.898 467.741 348.286C468.353 347.674 468.659 346.912 468.659 346C468.659 345.088 468.353 344.326 467.741 343.714C467.129 343.102 466.373 342.796 465.473 342.796C464.585 342.796 463.835 343.102 463.223 343.714C462.611 344.326 462.305 345.088 462.305 346C462.305 346.912 462.611 347.674 463.223 348.286C463.835 348.898 464.585 349.204 465.473 349.204ZM478.281 346.27V341.5H479.847V350.5H478.281V349.204C477.657 350.224 476.685 350.734 475.365 350.734C474.309 350.734 473.463 350.404 472.827 349.744C472.191 349.072 471.873 348.166 471.873 347.026V341.5H473.439V346.936C473.439 347.656 473.637 348.22 474.033 348.628C474.429 349.036 474.975 349.24 475.671 349.24C476.475 349.24 477.111 348.994 477.579 348.502C478.047 347.998 478.281 347.254 478.281 346.27ZM483.797 341.5V343.012C484.313 341.896 485.249 341.338 486.605 341.338V342.976C485.837 342.94 485.177 343.144 484.625 343.588C484.073 344.032 483.797 344.746 483.797 345.73V350.5H482.231V341.5H483.797ZM497.533 341.5V343.012H495.139V347.89C495.139 348.334 495.223 348.652 495.391 348.844C495.571 349.024 495.841 349.12 496.201 349.132C496.561 349.132 497.005 349.12 497.533 349.096V350.5C496.153 350.68 495.145 350.566 494.509 350.158C493.885 349.75 493.573 348.994 493.573 347.89V343.012H491.791V341.5H493.573V339.448L495.139 338.98V341.5H497.533ZM507.57 346.72H500.028C500.184 347.512 500.55 348.136 501.126 348.592C501.702 349.036 502.422 349.258 503.286 349.258C504.474 349.258 505.338 348.82 505.878 347.944L507.21 348.7C506.322 350.056 505.002 350.734 503.25 350.734C501.834 350.734 500.67 350.29 499.758 349.402C498.87 348.49 498.426 347.356 498.426 346C498.426 344.632 498.864 343.504 499.74 342.616C500.616 341.716 501.75 341.266 503.142 341.266C504.462 341.266 505.536 341.734 506.364 342.67C507.204 343.582 507.624 344.698 507.624 346.018C507.624 346.246 507.606 346.48 507.57 346.72ZM503.142 342.742C502.314 342.742 501.618 342.976 501.054 343.444C500.502 343.912 500.16 344.548 500.028 345.352H506.04C505.908 344.524 505.578 343.882 505.05 343.426C504.522 342.97 503.886 342.742 503.142 342.742ZM516.859 343.048V341.5H518.425V350.5H516.859V348.952C516.091 350.14 514.957 350.734 513.457 350.734C512.185 350.734 511.111 350.278 510.235 349.366C509.347 348.442 508.903 347.32 508.903 346C508.903 344.692 509.347 343.576 510.235 342.652C511.123 341.728 512.197 341.266 513.457 341.266C514.957 341.266 516.091 341.86 516.859 343.048ZM513.655 349.222C514.567 349.222 515.329 348.916 515.941 348.304C516.553 347.668 516.859 346.9 516.859 346C516.859 345.088 516.553 344.326 515.941 343.714C515.329 343.09 514.567 342.778 513.655 342.778C512.755 342.778 511.999 343.09 511.387 343.714C510.775 344.326 510.469 345.088 510.469 346C510.469 346.9 510.775 347.668 511.387 348.304C511.999 348.916 512.755 349.222 513.655 349.222ZM530.517 341.266C531.537 341.266 532.353 341.596 532.965 342.256C533.589 342.916 533.901 343.798 533.901 344.902V350.5H532.335V344.956C532.335 344.272 532.155 343.738 531.795 343.354C531.447 342.958 530.967 342.76 530.355 342.76C529.659 342.76 529.113 342.994 528.717 343.462C528.333 343.918 528.141 344.596 528.141 345.496V350.5H526.575V344.956C526.575 344.272 526.401 343.738 526.053 343.354C525.717 342.958 525.255 342.76 524.667 342.76C523.983 342.76 523.425 343 522.993 343.48C522.573 343.948 522.363 344.62 522.363 345.496V350.5H520.797V341.5H522.363V342.706C522.975 341.746 523.869 341.266 525.045 341.266C526.257 341.266 527.139 341.776 527.691 342.796C528.315 341.776 529.257 341.266 530.517 341.266ZM548.169 349.366C547.257 350.278 546.135 350.734 544.803 350.734C543.471 350.734 542.349 350.278 541.437 349.366C540.525 348.454 540.069 347.332 540.069 346C540.069 344.668 540.525 343.546 541.437 342.634C542.349 341.722 543.471 341.266 544.803 341.266C546.135 341.266 547.257 341.722 548.169 342.634C549.093 343.558 549.555 344.68 549.555 346C549.555 347.32 549.093 348.442 548.169 349.366ZM544.803 349.204C545.703 349.204 546.459 348.898 547.071 348.286C547.683 347.674 547.989 346.912 547.989 346C547.989 345.088 547.683 344.326 547.071 343.714C546.459 343.102 545.703 342.796 544.803 342.796C543.915 342.796 543.165 343.102 542.553 343.714C541.941 344.326 541.635 345.088 541.635 346C541.635 346.912 541.941 347.674 542.553 348.286C543.165 348.898 543.915 349.204 544.803 349.204ZM555.693 337.666V339.178C554.109 339.046 553.317 339.73 553.317 341.23V341.5H555.693V343.012H553.317V350.5H551.751V343.012H550.311V341.5H551.751V341.23C551.751 340.006 552.093 339.088 552.777 338.476C553.461 337.852 554.433 337.582 555.693 337.666ZM570.025 346.72H562.483C562.639 347.512 563.005 348.136 563.581 348.592C564.157 349.036 564.877 349.258 565.741 349.258C566.929 349.258 567.793 348.82 568.333 347.944L569.665 348.7C568.777 350.056 567.457 350.734 565.705 350.734C564.289 350.734 563.125 350.29 562.213 349.402C561.325 348.49 560.881 347.356 560.881 346C560.881 344.632 561.319 343.504 562.195 342.616C563.071 341.716 564.205 341.266 565.597 341.266C566.917 341.266 567.991 341.734 568.819 342.67C569.659 343.582 570.079 344.698 570.079 346.018C570.079 346.246 570.061 346.48 570.025 346.72ZM565.597 342.742C564.769 342.742 564.073 342.976 563.509 343.444C562.957 343.912 562.615 344.548 562.483 345.352H568.495C568.363 344.524 568.033 343.882 567.505 343.426C566.977 342.97 566.341 342.742 565.597 342.742ZM575.832 345.856L579.27 350.5H577.434L574.914 347.098L572.376 350.5H570.54L573.996 345.874L570.738 341.5H572.592L574.914 344.632L577.236 341.5H579.072L575.832 345.856ZM585.689 341.266C586.949 341.266 588.023 341.728 588.911 342.652C589.799 343.576 590.243 344.692 590.243 346C590.243 347.32 589.799 348.442 588.911 349.366C588.035 350.278 586.961 350.734 585.689 350.734C584.201 350.734 583.067 350.14 582.287 348.952V354.1H580.721V341.5H582.287V343.048C583.067 341.86 584.201 341.266 585.689 341.266ZM585.491 349.222C586.391 349.222 587.147 348.916 587.759 348.304C588.371 347.668 588.677 346.9 588.677 346C588.677 345.088 588.371 344.326 587.759 343.714C587.147 343.09 586.391 342.778 585.491 342.778C584.579 342.778 583.817 343.09 583.205 343.714C582.593 344.326 582.287 345.088 582.287 346C582.287 346.9 582.593 347.668 583.205 348.304C583.817 348.916 584.579 349.222 585.491 349.222ZM600.752 346.72H593.21C593.366 347.512 593.732 348.136 594.308 348.592C594.884 349.036 595.604 349.258 596.468 349.258C597.656 349.258 598.52 348.82 599.06 347.944L600.392 348.7C599.504 350.056 598.184 350.734 596.432 350.734C595.016 350.734 593.852 350.29 592.94 349.402C592.052 348.49 591.608 347.356 591.608 346C591.608 344.632 592.046 343.504 592.922 342.616C593.798 341.716 594.932 341.266 596.324 341.266C597.644 341.266 598.718 341.734 599.546 342.67C600.386 343.582 600.806 344.698 600.806 346.018C600.806 346.246 600.788 346.48 600.752 346.72ZM596.324 342.742C595.496 342.742 594.8 342.976 594.236 343.444C593.684 343.912 593.342 344.548 593.21 345.352H599.222C599.09 344.524 598.76 343.882 598.232 343.426C597.704 342.97 597.068 342.742 596.324 342.742ZM604.172 341.5V343.012C604.688 341.896 605.624 341.338 606.98 341.338V342.976C606.212 342.94 605.552 343.144 605 343.588C604.448 344.032 604.172 344.746 604.172 345.73V350.5H602.606V341.5H604.172ZM613.619 341.5V343.012H611.225V347.89C611.225 348.334 611.309 348.652 611.477 348.844C611.657 349.024 611.927 349.12 612.287 349.132C612.647 349.132 613.091 349.12 613.619 349.096V350.5C612.239 350.68 611.231 350.566 610.595 350.158C609.971 349.75 609.659 348.994 609.659 347.89V343.012H607.877V341.5H609.659V339.448L611.225 338.98V341.5H613.619ZM624.652 337.666C625.384 337.666 626.224 337.756 627.172 337.936V350.5H625.606V339.106C625.03 339.082 624.712 339.07 624.652 339.07C623.836 339.07 623.236 339.244 622.852 339.592C622.468 339.928 622.276 340.474 622.276 341.23V341.5H624.148V343.012H622.276V350.5H620.71V343.012H619.27V341.5H620.71V341.23C620.71 338.854 622.024 337.666 624.652 337.666ZM637.167 349.366C636.255 350.278 635.133 350.734 633.801 350.734C632.469 350.734 631.347 350.278 630.435 349.366C629.523 348.454 629.067 347.332 629.067 346C629.067 344.668 629.523 343.546 630.435 342.634C631.347 341.722 632.469 341.266 633.801 341.266C635.133 341.266 636.255 341.722 637.167 342.634C638.091 343.558 638.553 344.68 638.553 346C638.553 347.32 638.091 348.442 637.167 349.366ZM633.801 349.204C634.701 349.204 635.457 348.898 636.069 348.286C636.681 347.674 636.987 346.912 636.987 346C636.987 345.088 636.681 344.326 636.069 343.714C635.457 343.102 634.701 342.796 633.801 342.796C632.913 342.796 632.163 343.102 631.551 343.714C630.939 344.326 630.633 345.088 630.633 346C630.633 346.912 630.939 347.674 631.551 348.286C632.163 348.898 632.913 349.204 633.801 349.204ZM641.965 341.5V343.012C642.481 341.896 643.417 341.338 644.773 341.338V342.976C644.005 342.94 643.345 343.144 642.793 343.588C642.241 344.032 641.965 344.746 641.965 345.73V350.5H640.399V341.5H641.965ZM647.097 339.862C646.797 339.862 646.545 339.76 646.341 339.556C646.137 339.352 646.035 339.106 646.035 338.818C646.035 338.53 646.137 338.284 646.341 338.08C646.545 337.864 646.797 337.756 647.097 337.756C647.385 337.756 647.631 337.864 647.835 338.08C648.039 338.284 648.141 338.53 648.141 338.818C648.141 339.106 648.039 339.352 647.835 339.556C647.631 339.76 647.385 339.862 647.097 339.862ZM647.871 350.5H646.305V341.5H647.871V350.5ZM651.593 343.93C651.593 344.506 652.187 344.956 653.375 345.28C653.819 345.376 654.191 345.478 654.491 345.586C654.803 345.682 655.139 345.832 655.499 346.036C655.871 346.24 656.153 346.51 656.345 346.846C656.537 347.182 656.633 347.578 656.633 348.034C656.633 348.85 656.315 349.504 655.679 349.996C655.043 350.488 654.239 350.734 653.267 350.734C652.403 350.734 651.653 350.548 651.017 350.176C650.393 349.792 649.949 349.276 649.685 348.628L651.035 347.854C651.179 348.286 651.449 348.628 651.845 348.88C652.241 349.132 652.715 349.258 653.267 349.258C653.807 349.258 654.239 349.156 654.563 348.952C654.887 348.748 655.049 348.442 655.049 348.034C655.049 347.422 654.455 346.978 653.267 346.702C652.871 346.594 652.571 346.51 652.367 346.45C652.163 346.39 651.881 346.282 651.521 346.126C651.173 345.97 650.909 345.808 650.729 345.64C650.549 345.46 650.381 345.226 650.225 344.938C650.081 344.638 650.009 344.308 650.009 343.948C650.009 343.168 650.309 342.526 650.909 342.022C651.521 341.518 652.283 341.266 653.195 341.266C653.927 341.266 654.575 341.434 655.139 341.77C655.715 342.094 656.147 342.55 656.435 343.138L655.121 343.876C654.797 343.108 654.155 342.724 653.195 342.724C652.739 342.724 652.355 342.832 652.043 343.048C651.743 343.264 651.593 343.558 651.593 343.93ZM663.031 341.5V343.012H660.637V347.89C660.637 348.334 660.721 348.652 660.889 348.844C661.069 349.024 661.339 349.12 661.699 349.132C662.059 349.132 662.503 349.12 663.031 349.096V350.5C661.651 350.68 660.643 350.566 660.007 350.158C659.383 349.75 659.071 348.994 659.071 347.89V343.012H657.289V341.5H659.071V339.448L660.637 338.98V341.5H663.031ZM665.796 343.93C665.796 344.506 666.39 344.956 667.578 345.28C668.022 345.376 668.394 345.478 668.694 345.586C669.006 345.682 669.342 345.832 669.702 346.036C670.074 346.24 670.356 346.51 670.548 346.846C670.74 347.182 670.836 347.578 670.836 348.034C670.836 348.85 670.518 349.504 669.882 349.996C669.246 350.488 668.442 350.734 667.47 350.734C666.606 350.734 665.856 350.548 665.22 350.176C664.596 349.792 664.152 349.276 663.888 348.628L665.238 347.854C665.382 348.286 665.652 348.628 666.048 348.88C666.444 349.132 666.918 349.258 667.47 349.258C668.01 349.258 668.442 349.156 668.766 348.952C669.09 348.748 669.252 348.442 669.252 348.034C669.252 347.422 668.658 346.978 667.47 346.702C667.074 346.594 666.774 346.51 666.57 346.45C666.366 346.39 666.084 346.282 665.724 346.126C665.376 345.97 665.112 345.808 664.932 345.64C664.752 345.46 664.584 345.226 664.428 344.938C664.284 344.638 664.212 344.308 664.212 343.948C664.212 343.168 664.512 342.526 665.112 342.022C665.724 341.518 666.486 341.266 667.398 341.266C668.13 341.266 668.778 341.434 669.342 341.77C669.918 342.094 670.35 342.55 670.638 343.138L669.324 343.876C669 343.108 668.358 342.724 667.398 342.724C666.942 342.724 666.558 342.832 666.246 343.048C665.946 343.264 665.796 343.558 665.796 343.93ZM684.642 343.048V341.5H686.208V350.5H684.642V348.952C683.874 350.14 682.74 350.734 681.24 350.734C679.968 350.734 678.894 350.278 678.018 349.366C677.13 348.442 676.686 347.32 676.686 346C676.686 344.692 677.13 343.576 678.018 342.652C678.906 341.728 679.98 341.266 681.24 341.266C682.74 341.266 683.874 341.86 684.642 343.048ZM681.438 349.222C682.35 349.222 683.112 348.916 683.724 348.304C684.336 347.668 684.642 346.9 684.642 346C684.642 345.088 684.336 344.326 683.724 343.714C683.112 343.09 682.35 342.778 681.438 342.778C680.538 342.778 679.782 343.09 679.17 343.714C678.558 344.326 678.252 345.088 678.252 346C678.252 346.9 678.558 347.668 679.17 348.304C679.782 348.916 680.538 349.222 681.438 349.222ZM693.063 341.266C694.119 341.266 694.965 341.602 695.601 342.274C696.237 342.934 696.555 343.834 696.555 344.974V350.5H694.989V345.064C694.989 344.344 694.791 343.78 694.395 343.372C693.999 342.964 693.453 342.76 692.757 342.76C691.953 342.76 691.317 343.012 690.849 343.516C690.381 344.008 690.147 344.746 690.147 345.73V350.5H688.581V341.5H690.147V342.796C690.771 341.776 691.743 341.266 693.063 341.266ZM706.193 343.048V337.9H707.759V350.5H706.193V348.952C705.425 350.14 704.291 350.734 702.791 350.734C701.519 350.734 700.445 350.278 699.569 349.366C698.681 348.442 698.237 347.32 698.237 346C698.237 344.692 698.681 343.576 699.569 342.652C700.457 341.728 701.531 341.266 702.791 341.266C704.291 341.266 705.425 341.86 706.193 343.048ZM702.989 349.222C703.901 349.222 704.663 348.916 705.275 348.304C705.887 347.668 706.193 346.9 706.193 346C706.193 345.088 705.887 344.326 705.275 343.714C704.663 343.09 703.901 342.778 702.989 342.778C702.089 342.778 701.333 343.09 700.721 343.714C700.109 344.326 699.803 345.088 699.803 346C699.803 346.9 700.109 347.668 700.721 348.304C701.333 348.916 702.089 349.222 702.989 349.222ZM722.083 343.048V337.9H723.649V350.5H722.083V348.952C721.315 350.14 720.181 350.734 718.681 350.734C717.409 350.734 716.335 350.278 715.459 349.366C714.571 348.442 714.127 347.32 714.127 346C714.127 344.692 714.571 343.576 715.459 342.652C716.347 341.728 717.421 341.266 718.681 341.266C720.181 341.266 721.315 341.86 722.083 343.048ZM718.879 349.222C719.791 349.222 720.553 348.916 721.165 348.304C721.777 347.668 722.083 346.9 722.083 346C722.083 345.088 721.777 344.326 721.165 343.714C720.553 343.09 719.791 342.778 718.879 342.778C717.979 342.778 717.223 343.09 716.611 343.714C715.999 344.326 715.693 345.088 715.693 346C715.693 346.9 715.999 347.668 716.611 348.304C717.223 348.916 717.979 349.222 718.879 349.222ZM734.662 346.72H727.12C727.276 347.512 727.642 348.136 728.218 348.592C728.794 349.036 729.514 349.258 730.378 349.258C731.566 349.258 732.43 348.82 732.97 347.944L734.302 348.7C733.414 350.056 732.094 350.734 730.342 350.734C728.926 350.734 727.762 350.29 726.85 349.402C725.962 348.49 725.518 347.356 725.518 346C725.518 344.632 725.956 343.504 726.832 342.616C727.708 341.716 728.842 341.266 730.234 341.266C731.554 341.266 732.628 341.734 733.456 342.67C734.296 343.582 734.716 344.698 734.716 346.018C734.716 346.246 734.698 346.48 734.662 346.72ZM730.234 342.742C729.406 342.742 728.71 342.976 728.146 343.444C727.594 343.912 727.252 344.548 727.12 345.352H733.132C733 344.524 732.67 343.882 732.142 343.426C731.614 342.97 730.978 342.742 730.234 342.742ZM737.515 343.93C737.515 344.506 738.109 344.956 739.297 345.28C739.741 345.376 740.113 345.478 740.413 345.586C740.725 345.682 741.061 345.832 741.421 346.036C741.793 346.24 742.075 346.51 742.267 346.846C742.459 347.182 742.555 347.578 742.555 348.034C742.555 348.85 742.237 349.504 741.601 349.996C740.965 350.488 740.161 350.734 739.189 350.734C738.325 350.734 737.575 350.548 736.939 350.176C736.315 349.792 735.871 349.276 735.607 348.628L736.957 347.854C737.101 348.286 737.371 348.628 737.767 348.88C738.163 349.132 738.637 349.258 739.189 349.258C739.729 349.258 740.161 349.156 740.485 348.952C740.809 348.748 740.971 348.442 740.971 348.034C740.971 347.422 740.377 346.978 739.189 346.702C738.793 346.594 738.493 346.51 738.289 346.45C738.085 346.39 737.803 346.282 737.443 346.126C737.095 345.97 736.831 345.808 736.651 345.64C736.471 345.46 736.303 345.226 736.147 344.938C736.003 344.638 735.931 344.308 735.931 343.948C735.931 343.168 736.231 342.526 736.831 342.022C737.443 341.518 738.205 341.266 739.117 341.266C739.849 341.266 740.497 341.434 741.061 341.77C741.637 342.094 742.069 342.55 742.357 343.138L741.043 343.876C740.719 343.108 740.077 342.724 739.117 342.724C738.661 342.724 738.277 342.832 737.965 343.048C737.665 343.264 737.515 343.558 737.515 343.93ZM745.113 339.862C744.813 339.862 744.561 339.76 744.357 339.556C744.153 339.352 744.051 339.106 744.051 338.818C744.051 338.53 744.153 338.284 744.357 338.08C744.561 337.864 744.813 337.756 745.113 337.756C745.401 337.756 745.647 337.864 745.851 338.08C746.055 338.284 746.157 338.53 746.157 338.818C746.157 339.106 746.055 339.352 745.851 339.556C745.647 339.76 745.401 339.862 745.113 339.862ZM745.887 350.5H744.321V341.5H745.887V350.5ZM755.746 343.048V341.5H757.294V350.122C757.294 351.454 756.844 352.486 755.944 353.218C755.032 353.962 753.952 354.334 752.704 354.334C751.696 354.334 750.826 354.142 750.094 353.758C749.362 353.386 748.81 352.846 748.438 352.138L749.806 351.364C750.298 352.372 751.276 352.876 752.74 352.876C753.676 352.876 754.408 352.63 754.936 352.138C755.476 351.646 755.746 350.974 755.746 350.122V348.844C754.954 350.044 753.826 350.644 752.362 350.644C751.066 350.644 749.98 350.188 749.104 349.276C748.216 348.352 747.772 347.242 747.772 345.946C747.772 344.65 748.216 343.546 749.104 342.634C749.98 341.722 751.066 341.266 752.362 341.266C753.838 341.266 754.966 341.86 755.746 343.048ZM755.746 345.946C755.746 345.046 755.44 344.29 754.828 343.678C754.216 343.066 753.454 342.76 752.542 342.76C751.63 342.76 750.868 343.066 750.256 343.678C749.644 344.29 749.338 345.046 749.338 345.946C749.338 346.858 749.644 347.62 750.256 348.232C750.868 348.844 751.63 349.15 752.542 349.15C753.454 349.15 754.216 348.844 754.828 348.232C755.44 347.62 755.746 346.858 755.746 345.946ZM764.149 341.266C765.205 341.266 766.051 341.602 766.687 342.274C767.323 342.934 767.641 343.834 767.641 344.974V350.5H766.075V345.064C766.075 344.344 765.877 343.78 765.481 343.372C765.085 342.964 764.539 342.76 763.843 342.76C763.039 342.76 762.403 343.012 761.935 343.516C761.467 344.008 761.233 344.746 761.233 345.73V350.5H759.667V341.5H761.233V342.796C761.857 341.776 762.829 341.266 764.149 341.266ZM778.467 346.72H770.925C771.081 347.512 771.447 348.136 772.023 348.592C772.599 349.036 773.319 349.258 774.183 349.258C775.371 349.258 776.235 348.82 776.775 347.944L778.107 348.7C777.219 350.056 775.899 350.734 774.147 350.734C772.731 350.734 771.567 350.29 770.655 349.402C769.767 348.49 769.323 347.356 769.323 346C769.323 344.632 769.761 343.504 770.637 342.616C771.513 341.716 772.647 341.266 774.039 341.266C775.359 341.266 776.433 341.734 777.261 342.67C778.101 343.582 778.521 344.698 778.521 346.018C778.521 346.246 778.503 346.48 778.467 346.72ZM774.039 342.742C773.211 342.742 772.515 342.976 771.951 343.444C771.399 343.912 771.057 344.548 770.925 345.352H776.937C776.805 344.524 776.475 343.882 775.947 343.426C775.419 342.97 774.783 342.742 774.039 342.742ZM781.887 341.5V343.012C782.403 341.896 783.339 341.338 784.695 341.338V342.976C783.927 342.94 783.267 343.144 782.715 343.588C782.163 344.032 781.887 344.746 781.887 345.73V350.5H780.321V341.5H781.887ZM787.243 343.93C787.243 344.506 787.837 344.956 789.025 345.28C789.469 345.376 789.841 345.478 790.141 345.586C790.453 345.682 790.789 345.832 791.149 346.036C791.521 346.24 791.803 346.51 791.995 346.846C792.187 347.182 792.283 347.578 792.283 348.034C792.283 348.85 791.965 349.504 791.329 349.996C790.693 350.488 789.889 350.734 788.917 350.734C788.053 350.734 787.303 350.548 786.667 350.176C786.043 349.792 785.599 349.276 785.335 348.628L786.685 347.854C786.829 348.286 787.099 348.628 787.495 348.88C787.891 349.132 788.365 349.258 788.917 349.258C789.457 349.258 789.889 349.156 790.213 348.952C790.537 348.748 790.699 348.442 790.699 348.034C790.699 347.422 790.105 346.978 788.917 346.702C788.521 346.594 788.221 346.51 788.017 346.45C787.813 346.39 787.531 346.282 787.171 346.126C786.823 345.97 786.559 345.808 786.379 345.64C786.199 345.46 786.031 345.226 785.875 344.938C785.731 344.638 785.659 344.308 785.659 343.948C785.659 343.168 785.959 342.526 786.559 342.022C787.171 341.518 787.933 341.266 788.845 341.266C789.577 341.266 790.225 341.434 790.789 341.77C791.365 342.094 791.797 342.55 792.085 343.138L790.771 343.876C790.447 343.108 789.805 342.724 788.845 342.724C788.389 342.724 788.005 342.832 787.693 343.048C787.393 343.264 787.243 343.558 787.243 343.93ZM802.867 350.734C801.511 350.734 800.383 350.284 799.483 349.384C798.583 348.472 798.133 347.344 798.133 346C798.133 344.656 798.583 343.534 799.483 342.634C800.383 341.722 801.511 341.266 802.867 341.266C803.755 341.266 804.553 341.482 805.261 341.914C805.969 342.334 806.497 342.904 806.845 343.624L805.531 344.38C805.303 343.9 804.949 343.516 804.469 343.228C804.001 342.94 803.467 342.796 802.867 342.796C801.967 342.796 801.211 343.102 800.599 343.714C799.999 344.338 799.699 345.1 799.699 346C799.699 346.888 799.999 347.644 800.599 348.268C801.211 348.88 801.967 349.186 802.867 349.186C803.467 349.186 804.007 349.048 804.487 348.772C804.967 348.484 805.333 348.1 805.585 347.62L806.917 348.394C806.521 349.114 805.963 349.684 805.243 350.104C804.523 350.524 803.731 350.734 802.867 350.734ZM810.047 341.5V343.012C810.563 341.896 811.499 341.338 812.855 341.338V342.976C812.087 342.94 811.427 343.144 810.875 343.588C810.323 344.032 810.047 344.746 810.047 345.73V350.5H808.481V341.5H810.047ZM822.535 346.72H814.993C815.149 347.512 815.515 348.136 816.091 348.592C816.667 349.036 817.387 349.258 818.251 349.258C819.439 349.258 820.303 348.82 820.843 347.944L822.175 348.7C821.287 350.056 819.967 350.734 818.215 350.734C816.799 350.734 815.635 350.29 814.723 349.402C813.835 348.49 813.391 347.356 813.391 346C813.391 344.632 813.829 343.504 814.705 342.616C815.581 341.716 816.715 341.266 818.107 341.266C819.427 341.266 820.501 341.734 821.329 342.67C822.169 343.582 822.589 344.698 822.589 346.018C822.589 346.246 822.571 346.48 822.535 346.72ZM818.107 342.742C817.279 342.742 816.583 342.976 816.019 343.444C815.467 343.912 815.125 344.548 814.993 345.352H821.005C820.873 344.524 820.543 343.882 820.015 343.426C819.487 342.97 818.851 342.742 818.107 342.742ZM831.824 343.048V341.5H833.39V350.5H831.824V348.952C831.056 350.14 829.922 350.734 828.422 350.734C827.15 350.734 826.076 350.278 825.2 349.366C824.312 348.442 823.868 347.32 823.868 346C823.868 344.692 824.312 343.576 825.2 342.652C826.088 341.728 827.162 341.266 828.422 341.266C829.922 341.266 831.056 341.86 831.824 343.048ZM828.62 349.222C829.532 349.222 830.294 348.916 830.906 348.304C831.518 347.668 831.824 346.9 831.824 346C831.824 345.088 831.518 344.326 830.906 343.714C830.294 343.09 829.532 342.778 828.62 342.778C827.72 342.778 826.964 343.09 826.352 343.714C825.74 344.326 825.434 345.088 825.434 346C825.434 346.9 825.74 347.668 826.352 348.304C826.964 348.916 827.72 349.222 828.62 349.222ZM840.658 341.5V343.012H838.264V347.89C838.264 348.334 838.348 348.652 838.516 348.844C838.696 349.024 838.966 349.12 839.326 349.132C839.686 349.132 840.13 349.12 840.658 349.096V350.5C839.278 350.68 838.27 350.566 837.634 350.158C837.01 349.75 836.698 348.994 836.698 347.89V343.012H834.916V341.5H836.698V339.448L838.264 338.98V341.5H840.658ZM850.695 346.72H843.153C843.309 347.512 843.675 348.136 844.251 348.592C844.827 349.036 845.547 349.258 846.411 349.258C847.599 349.258 848.463 348.82 849.003 347.944L850.335 348.7C849.447 350.056 848.127 350.734 846.375 350.734C844.959 350.734 843.795 350.29 842.883 349.402C841.995 348.49 841.551 347.356 841.551 346C841.551 344.632 841.989 343.504 842.865 342.616C843.741 341.716 844.875 341.266 846.267 341.266C847.587 341.266 848.661 341.734 849.489 342.67C850.329 343.582 850.749 344.698 850.749 346.018C850.749 346.246 850.731 346.48 850.695 346.72ZM846.267 342.742C845.439 342.742 844.743 342.976 844.179 343.444C843.627 343.912 843.285 344.548 843.153 345.352H849.165C849.033 344.524 848.703 343.882 848.175 343.426C847.647 342.97 847.011 342.742 846.267 342.742ZM858.399 343.93C858.399 344.506 858.993 344.956 860.181 345.28C860.625 345.376 860.997 345.478 861.297 345.586C861.609 345.682 861.945 345.832 862.305 346.036C862.677 346.24 862.959 346.51 863.151 346.846C863.343 347.182 863.439 347.578 863.439 348.034C863.439 348.85 863.121 349.504 862.485 349.996C861.849 350.488 861.045 350.734 860.073 350.734C859.209 350.734 858.459 350.548 857.823 350.176C857.199 349.792 856.755 349.276 856.491 348.628L857.841 347.854C857.985 348.286 858.255 348.628 858.651 348.88C859.047 349.132 859.521 349.258 860.073 349.258C860.613 349.258 861.045 349.156 861.369 348.952C861.693 348.748 861.855 348.442 861.855 348.034C861.855 347.422 861.261 346.978 860.073 346.702C859.677 346.594 859.377 346.51 859.173 346.45C858.969 346.39 858.687 346.282 858.327 346.126C857.979 345.97 857.715 345.808 857.535 345.64C857.355 345.46 857.187 345.226 857.031 344.938C856.887 344.638 856.815 344.308 856.815 343.948C856.815 343.168 857.115 342.526 857.715 342.022C858.327 341.518 859.089 341.266 860.001 341.266C860.733 341.266 861.381 341.434 861.945 341.77C862.521 342.094 862.953 342.55 863.241 343.138L861.927 343.876C861.603 343.108 860.961 342.724 860.001 342.724C859.545 342.724 859.161 342.832 858.849 343.048C858.549 343.264 858.399 343.558 858.399 343.93ZM869.838 341.5V343.012H867.444V347.89C867.444 348.334 867.528 348.652 867.696 348.844C867.876 349.024 868.146 349.12 868.506 349.132C868.866 349.132 869.31 349.12 869.838 349.096V350.5C868.458 350.68 867.45 350.566 866.814 350.158C866.19 349.75 865.878 348.994 865.878 347.89V343.012H864.096V341.5H865.878V339.448L867.444 338.98V341.5H869.838ZM877.955 346.27V341.5H879.521V350.5H877.955V349.204C877.331 350.224 876.359 350.734 875.039 350.734C873.983 350.734 873.137 350.404 872.501 349.744C871.865 349.072 871.547 348.166 871.547 347.026V341.5H873.113V346.936C873.113 347.656 873.311 348.22 873.707 348.628C874.103 349.036 874.649 349.24 875.345 349.24C876.149 349.24 876.785 348.994 877.253 348.502C877.721 347.998 877.955 347.254 877.955 346.27ZM886.387 341.266C887.443 341.266 888.289 341.602 888.925 342.274C889.561 342.934 889.879 343.834 889.879 344.974V350.5H888.313V345.064C888.313 344.344 888.115 343.78 887.719 343.372C887.323 342.964 886.777 342.76 886.081 342.76C885.277 342.76 884.641 343.012 884.173 343.516C883.705 344.008 883.471 344.746 883.471 345.73V350.5H881.905V341.5H883.471V342.796C884.095 341.776 885.067 341.266 886.387 341.266ZM896.547 341.266C897.603 341.266 898.449 341.602 899.085 342.274C899.721 342.934 900.039 343.834 900.039 344.974V350.5H898.473V345.064C898.473 344.344 898.275 343.78 897.879 343.372C897.483 342.964 896.937 342.76 896.241 342.76C895.437 342.76 894.801 343.012 894.333 343.516C893.865 344.008 893.631 344.746 893.631 345.73V350.5H892.065V341.5H893.631V342.796C894.255 341.776 895.227 341.266 896.547 341.266ZM903.017 339.862C902.717 339.862 902.465 339.76 902.261 339.556C902.057 339.352 901.955 339.106 901.955 338.818C901.955 338.53 902.057 338.284 902.261 338.08C902.465 337.864 902.717 337.756 903.017 337.756C903.305 337.756 903.551 337.864 903.755 338.08C903.959 338.284 904.061 338.53 904.061 338.818C904.061 339.106 903.959 339.352 903.755 339.556C903.551 339.76 903.305 339.862 903.017 339.862ZM903.791 350.5H902.225V341.5H903.791V350.5ZM910.662 341.266C911.718 341.266 912.564 341.602 913.2 342.274C913.836 342.934 914.154 343.834 914.154 344.974V350.5H912.588V345.064C912.588 344.344 912.39 343.78 911.994 343.372C911.598 342.964 911.052 342.76 910.356 342.76C909.552 342.76 908.916 343.012 908.448 343.516C907.98 344.008 907.746 344.746 907.746 345.73V350.5H906.18V341.5H907.746V342.796C908.37 341.776 909.342 341.266 910.662 341.266ZM923.81 343.048V341.5H925.358V350.122C925.358 351.454 924.908 352.486 924.008 353.218C923.096 353.962 922.016 354.334 920.768 354.334C919.76 354.334 918.89 354.142 918.158 353.758C917.426 353.386 916.874 352.846 916.502 352.138L917.87 351.364C918.362 352.372 919.34 352.876 920.804 352.876C921.74 352.876 922.472 352.63 923 352.138C923.54 351.646 923.81 350.974 923.81 350.122V348.844C923.018 350.044 921.89 350.644 920.426 350.644C919.13 350.644 918.044 350.188 917.168 349.276C916.28 348.352 915.836 347.242 915.836 345.946C915.836 344.65 916.28 343.546 917.168 342.634C918.044 341.722 919.13 341.266 920.426 341.266C921.902 341.266 923.03 341.86 923.81 343.048ZM923.81 345.946C923.81 345.046 923.504 344.29 922.892 343.678C922.28 343.066 921.518 342.76 920.606 342.76C919.694 342.76 918.932 343.066 918.32 343.678C917.708 344.29 917.402 345.046 917.402 345.946C917.402 346.858 917.708 347.62 918.32 348.232C918.932 348.844 919.694 349.15 920.606 349.15C921.518 349.15 922.28 348.844 922.892 348.232C923.504 347.62 923.81 346.858 923.81 345.946ZM928.271 348.646H930.071L928.901 353.02H927.551L928.271 348.646ZM944.38 349.366C943.468 350.278 942.346 350.734 941.014 350.734C939.682 350.734 938.56 350.278 937.648 349.366C936.736 348.454 936.28 347.332 936.28 346C936.28 344.668 936.736 343.546 937.648 342.634C938.56 341.722 939.682 341.266 941.014 341.266C942.346 341.266 943.468 341.722 944.38 342.634C945.304 343.558 945.766 344.68 945.766 346C945.766 347.32 945.304 348.442 944.38 349.366ZM941.014 349.204C941.914 349.204 942.67 348.898 943.282 348.286C943.894 347.674 944.2 346.912 944.2 346C944.2 345.088 943.894 344.326 943.282 343.714C942.67 343.102 941.914 342.796 941.014 342.796C940.126 342.796 939.376 343.102 938.764 343.714C938.152 344.326 937.846 345.088 937.846 346C937.846 346.912 938.152 347.674 938.764 348.286C939.376 348.898 940.126 349.204 941.014 349.204ZM952.094 341.266C953.15 341.266 953.996 341.602 954.632 342.274C955.268 342.934 955.586 343.834 955.586 344.974V350.5H954.02V345.064C954.02 344.344 953.822 343.78 953.426 343.372C953.03 342.964 952.484 342.76 951.788 342.76C950.984 342.76 950.348 343.012 949.88 343.516C949.412 344.008 949.178 344.746 949.178 345.73V350.5H947.612V341.5H949.178V342.796C949.802 341.776 950.774 341.266 952.094 341.266ZM964.504 345.73H957.934V344.218H964.504V345.73ZM971.738 341.5V343.012H969.344V347.89C969.344 348.334 969.428 348.652 969.596 348.844C969.776 349.024 970.046 349.12 970.406 349.132C970.766 349.132 971.21 349.12 971.738 349.096V350.5C970.358 350.68 969.35 350.566 968.714 350.158C968.09 349.75 967.778 348.994 967.778 347.89V343.012H965.996V341.5H967.778V339.448L969.344 338.98V341.5H971.738ZM975.211 341.5V343.012C975.727 341.896 976.663 341.338 978.019 341.338V342.976C977.251 342.94 976.591 343.144 976.039 343.588C975.487 344.032 975.211 344.746 975.211 345.73V350.5H973.645V341.5H975.211ZM987.699 346.72H980.157C980.313 347.512 980.679 348.136 981.255 348.592C981.831 349.036 982.551 349.258 983.415 349.258C984.603 349.258 985.467 348.82 986.007 347.944L987.339 348.7C986.451 350.056 985.131 350.734 983.379 350.734C981.963 350.734 980.799 350.29 979.887 349.402C978.999 348.49 978.555 347.356 978.555 346C978.555 344.632 978.993 343.504 979.869 342.616C980.745 341.716 981.879 341.266 983.271 341.266C984.591 341.266 985.665 341.734 986.493 342.67C987.333 343.582 987.753 344.698 987.753 346.018C987.753 346.246 987.735 346.48 987.699 346.72ZM983.271 342.742C982.443 342.742 981.747 342.976 981.183 343.444C980.631 343.912 980.289 344.548 980.157 345.352H986.169C986.037 344.524 985.707 343.882 985.179 343.426C984.651 342.97 984.015 342.742 983.271 342.742ZM994.035 341.266C995.091 341.266 995.937 341.602 996.573 342.274C997.209 342.934 997.527 343.834 997.527 344.974V350.5H995.961V345.064C995.961 344.344 995.763 343.78 995.367 343.372C994.971 342.964 994.425 342.76 993.729 342.76C992.925 342.76 992.289 343.012 991.821 343.516C991.353 344.008 991.119 344.746 991.119 345.73V350.5H989.553V341.5H991.119V342.796C991.743 341.776 992.715 341.266 994.035 341.266ZM1007.17 343.048V337.9H1008.73V350.5H1007.17V348.952C1006.4 350.14 1005.26 350.734 1003.76 350.734C1002.49 350.734 1001.42 350.278 1000.54 349.366C999.653 348.442 999.209 347.32 999.209 346C999.209 344.692 999.653 343.576 1000.54 342.652C1001.43 341.728 1002.5 341.266 1003.76 341.266C1005.26 341.266 1006.4 341.86 1007.17 343.048ZM1003.96 349.222C1004.87 349.222 1005.64 348.916 1006.25 348.304C1006.86 347.668 1007.17 346.9 1007.17 346C1007.17 345.088 1006.86 344.326 1006.25 343.714C1005.64 343.09 1004.87 342.778 1003.96 342.778C1003.06 342.778 1002.31 343.09 1001.69 343.714C1001.08 344.326 1000.78 345.088 1000.78 346C1000.78 346.9 1001.08 347.668 1001.69 348.304C1002.31 348.916 1003.06 349.222 1003.96 349.222ZM453.793 362.666C454.525 362.666 455.365 362.756 456.313 362.936V375.5H454.747V364.106C454.171 364.082 453.853 364.07 453.793 364.07C452.977 364.07 452.377 364.244 451.993 364.592C451.609 364.928 451.417 365.474 451.417 366.23V366.5H453.289V368.012H451.417V375.5H449.851V368.012H448.411V366.5H449.851V366.23C449.851 363.854 451.165 362.666 453.793 362.666ZM466.307 374.366C465.395 375.278 464.273 375.734 462.941 375.734C461.609 375.734 460.487 375.278 459.575 374.366C458.663 373.454 458.207 372.332 458.207 371C458.207 369.668 458.663 368.546 459.575 367.634C460.487 366.722 461.609 366.266 462.941 366.266C464.273 366.266 465.395 366.722 466.307 367.634C467.231 368.558 467.693 369.68 467.693 371C467.693 372.32 467.231 373.442 466.307 374.366ZM462.941 374.204C463.841 374.204 464.597 373.898 465.209 373.286C465.821 372.674 466.127 371.912 466.127 371C466.127 370.088 465.821 369.326 465.209 368.714C464.597 368.102 463.841 367.796 462.941 367.796C462.053 367.796 461.303 368.102 460.691 368.714C460.079 369.326 459.773 370.088 459.773 371C459.773 371.912 460.079 372.674 460.691 373.286C461.303 373.898 462.053 374.204 462.941 374.204ZM471.106 366.5V368.012C471.622 366.896 472.558 366.338 473.914 366.338V367.976C473.146 367.94 472.486 368.144 471.934 368.588C471.382 369.032 471.106 369.746 471.106 370.73V375.5H469.54V366.5H471.106ZM482.406 368.048V366.5H483.972V375.5H482.406V373.952C481.638 375.14 480.504 375.734 479.004 375.734C477.732 375.734 476.658 375.278 475.782 374.366C474.894 373.442 474.45 372.32 474.45 371C474.45 369.692 474.894 368.576 475.782 367.652C476.67 366.728 477.744 366.266 479.004 366.266C480.504 366.266 481.638 366.86 482.406 368.048ZM479.202 374.222C480.114 374.222 480.876 373.916 481.488 373.304C482.1 372.668 482.406 371.9 482.406 371C482.406 370.088 482.1 369.326 481.488 368.714C480.876 368.09 480.114 367.778 479.202 367.778C478.302 367.778 477.546 368.09 476.934 368.714C476.322 369.326 476.016 370.088 476.016 371C476.016 371.9 476.322 372.668 476.934 373.304C477.546 373.916 478.302 374.222 479.202 374.222ZM487.91 375.5H486.344V362.36H487.91V375.5ZM502.251 368.048V362.9H503.817V375.5H502.251V373.952C501.483 375.14 500.349 375.734 498.849 375.734C497.577 375.734 496.503 375.278 495.627 374.366C494.739 373.442 494.295 372.32 494.295 371C494.295 369.692 494.739 368.576 495.627 367.652C496.515 366.728 497.589 366.266 498.849 366.266C500.349 366.266 501.483 366.86 502.251 368.048ZM499.047 374.222C499.959 374.222 500.721 373.916 501.333 373.304C501.945 372.668 502.251 371.9 502.251 371C502.251 370.088 501.945 369.326 501.333 368.714C500.721 368.09 499.959 367.778 499.047 367.778C498.147 367.778 497.391 368.09 496.779 368.714C496.167 369.326 495.861 370.088 495.861 371C495.861 371.9 496.167 372.668 496.779 373.304C497.391 373.916 498.147 374.222 499.047 374.222ZM510.654 362.882H512.544L510.726 365.258H509.214L510.654 362.882ZM514.83 371.72H507.288C507.444 372.512 507.81 373.136 508.386 373.592C508.962 374.036 509.682 374.258 510.546 374.258C511.734 374.258 512.598 373.82 513.138 372.944L514.47 373.7C513.582 375.056 512.262 375.734 510.51 375.734C509.094 375.734 507.93 375.29 507.018 374.402C506.13 373.49 505.686 372.356 505.686 371C505.686 369.632 506.124 368.504 507 367.616C507.876 366.716 509.01 366.266 510.402 366.266C511.722 366.266 512.796 366.734 513.624 367.67C514.464 368.582 514.884 369.698 514.884 371.018C514.884 371.246 514.866 371.48 514.83 371.72ZM510.402 367.742C509.574 367.742 508.878 367.976 508.314 368.444C507.762 368.912 507.42 369.548 507.288 370.352H513.3C513.168 369.524 512.838 368.882 512.31 368.426C511.782 367.97 511.146 367.742 510.402 367.742ZM520.897 375.734C519.541 375.734 518.413 375.284 517.513 374.384C516.613 373.472 516.163 372.344 516.163 371C516.163 369.656 516.613 368.534 517.513 367.634C518.413 366.722 519.541 366.266 520.897 366.266C521.785 366.266 522.583 366.482 523.291 366.914C523.999 367.334 524.527 367.904 524.875 368.624L523.561 369.38C523.333 368.9 522.979 368.516 522.499 368.228C522.031 367.94 521.497 367.796 520.897 367.796C519.997 367.796 519.241 368.102 518.629 368.714C518.029 369.338 517.729 370.1 517.729 371C517.729 371.888 518.029 372.644 518.629 373.268C519.241 373.88 519.997 374.186 520.897 374.186C521.497 374.186 522.037 374.048 522.517 373.772C522.997 373.484 523.363 373.1 523.615 372.62L524.947 373.394C524.551 374.114 523.993 374.684 523.273 375.104C522.553 375.524 521.761 375.734 520.897 375.734ZM533.966 374.366C533.054 375.278 531.932 375.734 530.6 375.734C529.268 375.734 528.146 375.278 527.234 374.366C526.322 373.454 525.866 372.332 525.866 371C525.866 369.668 526.322 368.546 527.234 367.634C528.146 366.722 529.268 366.266 530.6 366.266C531.932 366.266 533.054 366.722 533.966 367.634C534.89 368.558 535.352 369.68 535.352 371C535.352 372.32 534.89 373.442 533.966 374.366ZM530.6 374.204C531.5 374.204 532.256 373.898 532.868 373.286C533.48 372.674 533.786 371.912 533.786 371C533.786 370.088 533.48 369.326 532.868 368.714C532.256 368.102 531.5 367.796 530.6 367.796C529.712 367.796 528.962 368.102 528.35 368.714C527.738 369.326 527.432 370.088 527.432 371C527.432 371.912 527.738 372.674 528.35 373.286C528.962 373.898 529.712 374.204 530.6 374.204ZM538.764 366.5V368.012C539.28 366.896 540.216 366.338 541.572 366.338V367.976C540.804 367.94 540.144 368.144 539.592 368.588C539.04 369.032 538.764 369.746 538.764 370.73V375.5H537.198V366.5H538.764ZM552.23 362.666V364.178C550.646 364.046 549.854 364.73 549.854 366.23V366.5H552.23V368.012H549.854V375.5H548.288V368.012H546.848V366.5H548.288V366.23C548.288 365.006 548.63 364.088 549.314 363.476C549.998 362.852 550.97 362.582 552.23 362.666ZM560.526 374.366C559.614 375.278 558.492 375.734 557.16 375.734C555.828 375.734 554.706 375.278 553.794 374.366C552.882 373.454 552.426 372.332 552.426 371C552.426 369.668 552.882 368.546 553.794 367.634C554.706 366.722 555.828 366.266 557.16 366.266C558.492 366.266 559.614 366.722 560.526 367.634C561.45 368.558 561.912 369.68 561.912 371C561.912 372.32 561.45 373.442 560.526 374.366ZM557.16 374.204C558.06 374.204 558.816 373.898 559.428 373.286C560.04 372.674 560.346 371.912 560.346 371C560.346 370.088 560.04 369.326 559.428 368.714C558.816 368.102 558.06 367.796 557.16 367.796C556.272 367.796 555.522 368.102 554.91 368.714C554.298 369.326 553.992 370.088 553.992 371C553.992 371.912 554.298 372.674 554.91 373.286C555.522 373.898 556.272 374.204 557.16 374.204ZM565.324 366.5V368.012C565.84 366.896 566.776 366.338 568.132 366.338V367.976C567.364 367.94 566.704 368.144 566.152 368.588C565.6 369.032 565.324 369.746 565.324 370.73V375.5H563.758V366.5H565.324ZM577.855 373.556L580.447 366.5H582.121L578.449 376.058C578.053 377.078 577.507 377.852 576.811 378.38C576.127 378.92 575.341 379.16 574.453 379.1V377.642C575.557 377.726 576.367 377.114 576.883 375.806L577.045 375.464L573.121 366.5H574.795L577.855 373.556ZM590.673 374.366C589.761 375.278 588.639 375.734 587.307 375.734C585.975 375.734 584.853 375.278 583.941 374.366C583.029 373.454 582.573 372.332 582.573 371C582.573 369.668 583.029 368.546 583.941 367.634C584.853 366.722 585.975 366.266 587.307 366.266C588.639 366.266 589.761 366.722 590.673 367.634C591.597 368.558 592.059 369.68 592.059 371C592.059 372.32 591.597 373.442 590.673 374.366ZM587.307 374.204C588.207 374.204 588.963 373.898 589.575 373.286C590.187 372.674 590.493 371.912 590.493 371C590.493 370.088 590.187 369.326 589.575 368.714C588.963 368.102 588.207 367.796 587.307 367.796C586.419 367.796 585.669 368.102 585.057 368.714C584.445 369.326 584.139 370.088 584.139 371C584.139 371.912 584.445 372.674 585.057 373.286C585.669 373.898 586.419 374.204 587.307 374.204ZM600.115 371.27V366.5H601.681V375.5H600.115V374.204C599.491 375.224 598.519 375.734 597.199 375.734C596.143 375.734 595.297 375.404 594.661 374.744C594.025 374.072 593.707 373.166 593.707 372.026V366.5H595.273V371.936C595.273 372.656 595.471 373.22 595.867 373.628C596.263 374.036 596.809 374.24 597.505 374.24C598.309 374.24 598.945 373.994 599.413 373.502C599.881 372.998 600.115 372.254 600.115 371.27ZM605.631 366.5V368.012C606.147 366.896 607.083 366.338 608.439 366.338V367.976C607.671 367.94 607.011 368.144 606.459 368.588C605.907 369.032 605.631 369.746 605.631 370.73V375.5H604.065V366.5H605.631ZM615.821 368.93C615.821 369.506 616.415 369.956 617.603 370.28C618.047 370.376 618.419 370.478 618.719 370.586C619.031 370.682 619.367 370.832 619.727 371.036C620.099 371.24 620.381 371.51 620.573 371.846C620.765 372.182 620.861 372.578 620.861 373.034C620.861 373.85 620.543 374.504 619.907 374.996C619.271 375.488 618.467 375.734 617.495 375.734C616.631 375.734 615.881 375.548 615.245 375.176C614.621 374.792 614.177 374.276 613.913 373.628L615.263 372.854C615.407 373.286 615.677 373.628 616.073 373.88C616.469 374.132 616.943 374.258 617.495 374.258C618.035 374.258 618.467 374.156 618.791 373.952C619.115 373.748 619.277 373.442 619.277 373.034C619.277 372.422 618.683 371.978 617.495 371.702C617.099 371.594 616.799 371.51 616.595 371.45C616.391 371.39 616.109 371.282 615.749 371.126C615.401 370.97 615.137 370.808 614.957 370.64C614.777 370.46 614.609 370.226 614.453 369.938C614.309 369.638 614.237 369.308 614.237 368.948C614.237 368.168 614.537 367.526 615.137 367.022C615.749 366.518 616.511 366.266 617.423 366.266C618.155 366.266 618.803 366.434 619.367 366.77C619.943 367.094 620.375 367.55 620.663 368.138L619.349 368.876C619.025 368.108 618.383 367.724 617.423 367.724C616.967 367.724 616.583 367.832 616.271 368.048C615.971 368.264 615.821 368.558 615.821 368.93ZM627.683 366.266C628.943 366.266 630.017 366.728 630.905 367.652C631.793 368.576 632.237 369.692 632.237 371C632.237 372.32 631.793 373.442 630.905 374.366C630.029 375.278 628.955 375.734 627.683 375.734C626.195 375.734 625.061 375.14 624.281 373.952V379.1H622.715V366.5H624.281V368.048C625.061 366.86 626.195 366.266 627.683 366.266ZM627.485 374.222C628.385 374.222 629.141 373.916 629.753 373.304C630.365 372.668 630.671 371.9 630.671 371C630.671 370.088 630.365 369.326 629.753 368.714C629.141 368.09 628.385 367.778 627.485 367.778C626.573 367.778 625.811 368.09 625.199 368.714C624.587 369.326 624.281 370.088 624.281 371C624.281 371.9 624.587 372.668 625.199 373.304C625.811 373.916 626.573 374.222 627.485 374.222ZM642.746 371.72H635.204C635.36 372.512 635.726 373.136 636.302 373.592C636.878 374.036 637.598 374.258 638.462 374.258C639.65 374.258 640.514 373.82 641.054 372.944L642.386 373.7C641.498 375.056 640.178 375.734 638.426 375.734C637.01 375.734 635.846 375.29 634.934 374.402C634.046 373.49 633.602 372.356 633.602 371C633.602 369.632 634.04 368.504 634.916 367.616C635.792 366.716 636.926 366.266 638.318 366.266C639.638 366.266 640.712 366.734 641.54 367.67C642.38 368.582 642.8 369.698 642.8 371.018C642.8 371.246 642.782 371.48 642.746 371.72ZM638.318 367.742C637.49 367.742 636.794 367.976 636.23 368.444C635.678 368.912 635.336 369.548 635.204 370.352H641.216C641.084 369.524 640.754 368.882 640.226 368.426C639.698 367.97 639.062 367.742 638.318 367.742ZM648.813 375.734C647.457 375.734 646.329 375.284 645.429 374.384C644.529 373.472 644.079 372.344 644.079 371C644.079 369.656 644.529 368.534 645.429 367.634C646.329 366.722 647.457 366.266 648.813 366.266C649.701 366.266 650.499 366.482 651.207 366.914C651.915 367.334 652.443 367.904 652.791 368.624L651.477 369.38C651.249 368.9 650.895 368.516 650.415 368.228C649.947 367.94 649.413 367.796 648.813 367.796C647.913 367.796 647.157 368.102 646.545 368.714C645.945 369.338 645.645 370.1 645.645 371C645.645 371.888 645.945 372.644 646.545 373.268C647.157 373.88 647.913 374.186 648.813 374.186C649.413 374.186 649.953 374.048 650.433 373.772C650.913 373.484 651.279 373.1 651.531 372.62L652.863 373.394C652.467 374.114 651.909 374.684 651.189 375.104C650.469 375.524 649.677 375.734 648.813 375.734ZM655.201 364.862C654.901 364.862 654.649 364.76 654.445 364.556C654.241 364.352 654.139 364.106 654.139 363.818C654.139 363.53 654.241 363.284 654.445 363.08C654.649 362.864 654.901 362.756 655.201 362.756C655.489 362.756 655.735 362.864 655.939 363.08C656.143 363.284 656.245 363.53 656.245 363.818C656.245 364.106 656.143 364.352 655.939 364.556C655.735 364.76 655.489 364.862 655.201 364.862ZM655.975 375.5H654.409V366.5H655.975V375.5ZM665.816 368.048V366.5H667.382V375.5H665.816V373.952C665.048 375.14 663.914 375.734 662.414 375.734C661.142 375.734 660.068 375.278 659.192 374.366C658.304 373.442 657.86 372.32 657.86 371C657.86 369.692 658.304 368.576 659.192 367.652C660.08 366.728 661.154 366.266 662.414 366.266C663.914 366.266 665.048 366.86 665.816 368.048ZM662.612 374.222C663.524 374.222 664.286 373.916 664.898 373.304C665.51 372.668 665.816 371.9 665.816 371C665.816 370.088 665.51 369.326 664.898 368.714C664.286 368.09 663.524 367.778 662.612 367.778C661.712 367.778 660.956 368.09 660.344 368.714C659.732 369.326 659.426 370.088 659.426 371C659.426 371.9 659.732 372.668 660.344 373.304C660.956 373.916 661.712 374.222 662.612 374.222ZM671.32 375.5H669.754V362.36H671.32V375.5ZM685.661 368.048V362.9H687.227V375.5H685.661V373.952C684.893 375.14 683.759 375.734 682.259 375.734C680.987 375.734 679.913 375.278 679.037 374.366C678.149 373.442 677.705 372.32 677.705 371C677.705 369.692 678.149 368.576 679.037 367.652C679.925 366.728 680.999 366.266 682.259 366.266C683.759 366.266 684.893 366.86 685.661 368.048ZM682.457 374.222C683.369 374.222 684.131 373.916 684.743 373.304C685.355 372.668 685.661 371.9 685.661 371C685.661 370.088 685.355 369.326 684.743 368.714C684.131 368.09 683.369 367.778 682.457 367.778C681.557 367.778 680.801 368.09 680.189 368.714C679.577 369.326 679.271 370.088 679.271 371C679.271 371.9 679.577 372.668 680.189 373.304C680.801 373.916 681.557 374.222 682.457 374.222ZM697.052 368.048V366.5H698.618V375.5H697.052V373.952C696.284 375.14 695.15 375.734 693.65 375.734C692.378 375.734 691.304 375.278 690.428 374.366C689.54 373.442 689.096 372.32 689.096 371C689.096 369.692 689.54 368.576 690.428 367.652C691.316 366.728 692.39 366.266 693.65 366.266C695.15 366.266 696.284 366.86 697.052 368.048ZM693.848 374.222C694.76 374.222 695.522 373.916 696.134 373.304C696.746 372.668 697.052 371.9 697.052 371C697.052 370.088 696.746 369.326 696.134 368.714C695.522 368.09 694.76 367.778 693.848 367.778C692.948 367.778 692.192 368.09 691.58 368.714C690.968 369.326 690.662 370.088 690.662 371C690.662 371.9 690.968 372.668 691.58 373.304C692.192 373.916 692.948 374.222 693.848 374.222ZM704.681 373.556L707.273 366.5H708.947L705.275 376.058C704.879 377.078 704.333 377.852 703.637 378.38C702.953 378.92 702.167 379.16 701.279 379.1V377.642C702.383 377.726 703.193 377.114 703.709 375.806L703.871 375.464L699.947 366.5H701.621L704.681 373.556ZM709.61 375.698C709.286 375.698 709.01 375.584 708.782 375.356C708.554 375.128 708.44 374.852 708.44 374.528C708.44 374.204 708.554 373.928 708.782 373.7C709.01 373.472 709.286 373.358 709.61 373.358C709.946 373.358 710.222 373.472 710.438 373.7C710.666 373.928 710.78 374.204 710.78 374.528C710.78 374.852 710.666 375.128 710.438 375.356C710.222 375.584 709.946 375.698 709.61 375.698ZM716.633 362.9H725.723V364.484H721.997V375.5H720.341V364.484H716.633V362.9ZM727.553 366.5V368.012C728.069 366.896 729.005 366.338 730.361 366.338V367.976C729.593 367.94 728.933 368.144 728.381 368.588C727.829 369.032 727.553 369.746 727.553 370.73V375.5H725.987V366.5H727.553ZM738.103 371.27V366.5H739.669V375.5H738.103V374.204C737.479 375.224 736.507 375.734 735.187 375.734C734.131 375.734 733.285 375.404 732.649 374.744C732.013 374.072 731.695 373.166 731.695 372.026V366.5H733.261V371.936C733.261 372.656 733.459 373.22 733.855 373.628C734.251 374.036 734.797 374.24 735.493 374.24C736.297 374.24 736.933 373.994 737.401 373.502C737.869 372.998 738.103 372.254 738.103 371.27ZM743.386 368.93C743.386 369.506 743.98 369.956 745.168 370.28C745.612 370.376 745.984 370.478 746.284 370.586C746.596 370.682 746.932 370.832 747.292 371.036C747.664 371.24 747.946 371.51 748.138 371.846C748.33 372.182 748.426 372.578 748.426 373.034C748.426 373.85 748.108 374.504 747.472 374.996C746.836 375.488 746.032 375.734 745.06 375.734C744.196 375.734 743.446 375.548 742.81 375.176C742.186 374.792 741.742 374.276 741.478 373.628L742.828 372.854C742.972 373.286 743.242 373.628 743.638 373.88C744.034 374.132 744.508 374.258 745.06 374.258C745.6 374.258 746.032 374.156 746.356 373.952C746.68 373.748 746.842 373.442 746.842 373.034C746.842 372.422 746.248 371.978 745.06 371.702C744.664 371.594 744.364 371.51 744.16 371.45C743.956 371.39 743.674 371.282 743.314 371.126C742.966 370.97 742.702 370.808 742.522 370.64C742.342 370.46 742.174 370.226 742.018 369.938C741.874 369.638 741.802 369.308 741.802 368.948C741.802 368.168 742.102 367.526 742.702 367.022C743.314 366.518 744.076 366.266 744.988 366.266C745.72 366.266 746.368 366.434 746.932 366.77C747.508 367.094 747.94 367.55 748.228 368.138L746.914 368.876C746.59 368.108 745.948 367.724 744.988 367.724C744.532 367.724 744.148 367.832 743.836 368.048C743.536 368.264 743.386 368.558 743.386 368.93ZM754.824 366.5V368.012H752.43V372.89C752.43 373.334 752.514 373.652 752.682 373.844C752.862 374.024 753.132 374.12 753.492 374.132C753.852 374.132 754.296 374.12 754.824 374.096V375.5C753.444 375.68 752.436 375.566 751.8 375.158C751.176 374.75 750.864 373.994 750.864 372.89V368.012H749.082V366.5H750.864V364.448L752.43 363.98V366.5H754.824ZM767.441 371.27V366.5H769.007V375.5H767.441V374.204C766.817 375.224 765.845 375.734 764.525 375.734C763.469 375.734 762.623 375.404 761.987 374.744C761.351 374.072 761.033 373.166 761.033 372.026V366.5H762.599V371.936C762.599 372.656 762.797 373.22 763.193 373.628C763.589 374.036 764.135 374.24 764.831 374.24C765.635 374.24 766.271 373.994 766.739 373.502C767.207 372.998 767.441 372.254 767.441 371.27ZM772.724 368.93C772.724 369.506 773.318 369.956 774.506 370.28C774.95 370.376 775.322 370.478 775.622 370.586C775.934 370.682 776.27 370.832 776.63 371.036C777.002 371.24 777.284 371.51 777.476 371.846C777.668 372.182 777.764 372.578 777.764 373.034C777.764 373.85 777.446 374.504 776.81 374.996C776.174 375.488 775.37 375.734 774.398 375.734C773.534 375.734 772.784 375.548 772.148 375.176C771.524 374.792 771.08 374.276 770.816 373.628L772.166 372.854C772.31 373.286 772.58 373.628 772.976 373.88C773.372 374.132 773.846 374.258 774.398 374.258C774.938 374.258 775.37 374.156 775.694 373.952C776.018 373.748 776.18 373.442 776.18 373.034C776.18 372.422 775.586 371.978 774.398 371.702C774.002 371.594 773.702 371.51 773.498 371.45C773.294 371.39 773.012 371.282 772.652 371.126C772.304 370.97 772.04 370.808 771.86 370.64C771.68 370.46 771.512 370.226 771.356 369.938C771.212 369.638 771.14 369.308 771.14 368.948C771.14 368.168 771.44 367.526 772.04 367.022C772.652 366.518 773.414 366.266 774.326 366.266C775.058 366.266 775.706 366.434 776.27 366.77C776.846 367.094 777.278 367.55 777.566 368.138L776.252 368.876C775.928 368.108 775.286 367.724 774.326 367.724C773.87 367.724 773.486 367.832 773.174 368.048C772.874 368.264 772.724 368.558 772.724 368.93ZM789.014 366.5V368.012H786.62V372.89C786.62 373.334 786.704 373.652 786.872 373.844C787.052 374.024 787.322 374.12 787.682 374.132C788.042 374.132 788.486 374.12 789.014 374.096V375.5C787.634 375.68 786.626 375.566 785.99 375.158C785.366 374.75 785.054 373.994 785.054 372.89V368.012H783.272V366.5H785.054V364.448L786.62 363.98V366.5H789.014ZM798.007 374.366C797.095 375.278 795.973 375.734 794.641 375.734C793.309 375.734 792.187 375.278 791.275 374.366C790.363 373.454 789.907 372.332 789.907 371C789.907 369.668 790.363 368.546 791.275 367.634C792.187 366.722 793.309 366.266 794.641 366.266C795.973 366.266 797.095 366.722 798.007 367.634C798.931 368.558 799.393 369.68 799.393 371C799.393 372.32 798.931 373.442 798.007 374.366ZM794.641 374.204C795.541 374.204 796.297 373.898 796.909 373.286C797.521 372.674 797.827 371.912 797.827 371C797.827 370.088 797.521 369.326 796.909 368.714C796.297 368.102 795.541 367.796 794.641 367.796C793.753 367.796 793.003 368.102 792.391 368.714C791.779 369.326 791.473 370.088 791.473 371C791.473 371.912 791.779 372.674 792.391 373.286C793.003 373.898 793.753 374.204 794.641 374.204ZM810.707 366.266C811.967 366.266 813.041 366.728 813.929 367.652C814.817 368.576 815.261 369.692 815.261 371C815.261 372.32 814.817 373.442 813.929 374.366C813.053 375.278 811.979 375.734 810.707 375.734C809.219 375.734 808.085 375.14 807.305 373.952V375.5H805.739V362.9H807.305V368.048C808.085 366.86 809.219 366.266 810.707 366.266ZM810.509 374.222C811.409 374.222 812.165 373.916 812.777 373.304C813.389 372.668 813.695 371.9 813.695 371C813.695 370.088 813.389 369.326 812.777 368.714C812.165 368.09 811.409 367.778 810.509 367.778C809.597 367.778 808.835 368.09 808.223 368.714C807.611 369.326 807.305 370.088 807.305 371C807.305 371.9 807.611 372.668 808.223 373.304C808.835 373.916 809.597 374.222 810.509 374.222ZM818.695 366.5V368.012C819.211 366.896 820.147 366.338 821.503 366.338V367.976C820.735 367.94 820.075 368.144 819.523 368.588C818.971 369.032 818.695 369.746 818.695 370.73V375.5H817.129V366.5H818.695ZM823.828 364.862C823.528 364.862 823.276 364.76 823.072 364.556C822.868 364.352 822.766 364.106 822.766 363.818C822.766 363.53 822.868 363.284 823.072 363.08C823.276 362.864 823.528 362.756 823.828 362.756C824.116 362.756 824.362 362.864 824.566 363.08C824.77 363.284 824.872 363.53 824.872 363.818C824.872 364.106 824.77 364.352 824.566 364.556C824.362 364.76 824.116 364.862 823.828 364.862ZM824.602 375.5H823.036V366.5H824.602V375.5ZM831.473 366.266C832.529 366.266 833.375 366.602 834.011 367.274C834.647 367.934 834.965 368.834 834.965 369.974V375.5H833.399V370.064C833.399 369.344 833.201 368.78 832.805 368.372C832.409 367.964 831.863 367.76 831.167 367.76C830.363 367.76 829.727 368.012 829.259 368.516C828.791 369.008 828.557 369.746 828.557 370.73V375.5H826.991V366.5H828.557V367.796C829.181 366.776 830.153 366.266 831.473 366.266ZM844.621 368.048V366.5H846.169V375.122C846.169 376.454 845.719 377.486 844.819 378.218C843.907 378.962 842.827 379.334 841.579 379.334C840.571 379.334 839.701 379.142 838.969 378.758C838.237 378.386 837.685 377.846 837.313 377.138L838.681 376.364C839.173 377.372 840.151 377.876 841.615 377.876C842.551 377.876 843.283 377.63 843.811 377.138C844.351 376.646 844.621 375.974 844.621 375.122V373.844C843.829 375.044 842.701 375.644 841.237 375.644C839.941 375.644 838.855 375.188 837.979 374.276C837.091 373.352 836.647 372.242 836.647 370.946C836.647 369.65 837.091 368.546 837.979 367.634C838.855 366.722 839.941 366.266 841.237 366.266C842.713 366.266 843.841 366.86 844.621 368.048ZM844.621 370.946C844.621 370.046 844.315 369.29 843.703 368.678C843.091 368.066 842.329 367.76 841.417 367.76C840.505 367.76 839.743 368.066 839.131 368.678C838.519 369.29 838.213 370.046 838.213 370.946C838.213 371.858 838.519 372.62 839.131 373.232C839.743 373.844 840.505 374.15 841.417 374.15C842.329 374.15 843.091 373.844 843.703 373.232C844.315 372.62 844.621 371.858 844.621 370.946ZM856.732 373.556L859.324 366.5H860.998L857.326 376.058C856.93 377.078 856.384 377.852 855.688 378.38C855.004 378.92 854.218 379.16 853.33 379.1V377.642C854.434 377.726 855.244 377.114 855.76 375.806L855.922 375.464L851.998 366.5H853.672L856.732 373.556ZM869.55 374.366C868.638 375.278 867.516 375.734 866.184 375.734C864.852 375.734 863.73 375.278 862.818 374.366C861.906 373.454 861.45 372.332 861.45 371C861.45 369.668 861.906 368.546 862.818 367.634C863.73 366.722 864.852 366.266 866.184 366.266C867.516 366.266 868.638 366.722 869.55 367.634C870.474 368.558 870.936 369.68 870.936 371C870.936 372.32 870.474 373.442 869.55 374.366ZM866.184 374.204C867.084 374.204 867.84 373.898 868.452 373.286C869.064 372.674 869.37 371.912 869.37 371C869.37 370.088 869.064 369.326 868.452 368.714C867.84 368.102 867.084 367.796 866.184 367.796C865.296 367.796 864.546 368.102 863.934 368.714C863.322 369.326 863.016 370.088 863.016 371C863.016 371.912 863.322 372.674 863.934 373.286C864.546 373.898 865.296 374.204 866.184 374.204ZM878.992 371.27V366.5H880.558V375.5H878.992V374.204C878.368 375.224 877.396 375.734 876.076 375.734C875.02 375.734 874.174 375.404 873.538 374.744C872.902 374.072 872.584 373.166 872.584 372.026V366.5H874.15V371.936C874.15 372.656 874.348 373.22 874.744 373.628C875.14 374.036 875.686 374.24 876.382 374.24C877.186 374.24 877.822 373.994 878.29 373.502C878.758 372.998 878.992 372.254 878.992 371.27ZM884.508 366.5V368.012C885.024 366.896 885.96 366.338 887.316 366.338V367.976C886.548 367.94 885.888 368.144 885.336 368.588C884.784 369.032 884.508 369.746 884.508 370.73V375.5H882.942V366.5H884.508ZM896.822 373.826L899.648 366.5H901.34L897.74 375.5H895.904L892.304 366.5H893.996L896.822 373.826ZM903.457 364.862C903.157 364.862 902.905 364.76 902.701 364.556C902.497 364.352 902.395 364.106 902.395 363.818C902.395 363.53 902.497 363.284 902.701 363.08C902.905 362.864 903.157 362.756 903.457 362.756C903.745 362.756 903.991 362.864 904.195 363.08C904.399 363.284 904.501 363.53 904.501 363.818C904.501 364.106 904.399 364.352 904.195 364.556C903.991 364.76 903.745 364.862 903.457 364.862ZM904.231 375.5H902.665V366.5H904.231V375.5ZM907.952 368.93C907.952 369.506 908.546 369.956 909.734 370.28C910.178 370.376 910.55 370.478 910.85 370.586C911.162 370.682 911.498 370.832 911.858 371.036C912.23 371.24 912.512 371.51 912.704 371.846C912.896 372.182 912.992 372.578 912.992 373.034C912.992 373.85 912.674 374.504 912.038 374.996C911.402 375.488 910.598 375.734 909.626 375.734C908.762 375.734 908.012 375.548 907.376 375.176C906.752 374.792 906.308 374.276 906.044 373.628L907.394 372.854C907.538 373.286 907.808 373.628 908.204 373.88C908.6 374.132 909.074 374.258 909.626 374.258C910.166 374.258 910.598 374.156 910.922 373.952C911.246 373.748 911.408 373.442 911.408 373.034C911.408 372.422 910.814 371.978 909.626 371.702C909.23 371.594 908.93 371.51 908.726 371.45C908.522 371.39 908.24 371.282 907.88 371.126C907.532 370.97 907.268 370.808 907.088 370.64C906.908 370.46 906.74 370.226 906.584 369.938C906.44 369.638 906.368 369.308 906.368 368.948C906.368 368.168 906.668 367.526 907.268 367.022C907.88 366.518 908.642 366.266 909.554 366.266C910.286 366.266 910.934 366.434 911.498 366.77C912.074 367.094 912.506 367.55 912.794 368.138L911.48 368.876C911.156 368.108 910.514 367.724 909.554 367.724C909.098 367.724 908.714 367.832 908.402 368.048C908.102 368.264 907.952 368.558 907.952 368.93ZM915.55 364.862C915.25 364.862 914.998 364.76 914.794 364.556C914.59 364.352 914.488 364.106 914.488 363.818C914.488 363.53 914.59 363.284 914.794 363.08C914.998 362.864 915.25 362.756 915.55 362.756C915.838 362.756 916.084 362.864 916.288 363.08C916.492 363.284 916.594 363.53 916.594 363.818C916.594 364.106 916.492 364.352 916.288 364.556C916.084 364.76 915.838 364.862 915.55 364.862ZM916.324 375.5H914.758V366.5H916.324V375.5ZM926.309 374.366C925.397 375.278 924.275 375.734 922.943 375.734C921.611 375.734 920.489 375.278 919.577 374.366C918.665 373.454 918.209 372.332 918.209 371C918.209 369.668 918.665 368.546 919.577 367.634C920.489 366.722 921.611 366.266 922.943 366.266C924.275 366.266 925.397 366.722 926.309 367.634C927.233 368.558 927.695 369.68 927.695 371C927.695 372.32 927.233 373.442 926.309 374.366ZM922.943 374.204C923.843 374.204 924.599 373.898 925.211 373.286C925.823 372.674 926.129 371.912 926.129 371C926.129 370.088 925.823 369.326 925.211 368.714C924.599 368.102 923.843 367.796 922.943 367.796C922.055 367.796 921.305 368.102 920.693 368.714C920.081 369.326 919.775 370.088 919.775 371C919.775 371.912 920.081 372.674 920.693 373.286C921.305 373.898 922.055 374.204 922.943 374.204ZM934.024 366.266C935.08 366.266 935.926 366.602 936.562 367.274C937.198 367.934 937.516 368.834 937.516 369.974V375.5H935.95V370.064C935.95 369.344 935.752 368.78 935.356 368.372C934.96 367.964 934.414 367.76 933.718 367.76C932.914 367.76 932.278 368.012 931.81 368.516C931.342 369.008 931.108 369.746 931.108 370.73V375.5H929.542V366.5H931.108V367.796C931.732 366.776 932.704 366.266 934.024 366.266ZM949.098 366.5V368.012H946.704V372.89C946.704 373.334 946.788 373.652 946.956 373.844C947.136 374.024 947.406 374.12 947.766 374.132C948.126 374.132 948.57 374.12 949.098 374.096V375.5C947.718 375.68 946.71 375.566 946.074 375.158C945.45 374.75 945.138 373.994 945.138 372.89V368.012H943.356V366.5H945.138V364.448L946.704 363.98V366.5H949.098ZM958.091 374.366C957.179 375.278 956.057 375.734 954.725 375.734C953.393 375.734 952.271 375.278 951.359 374.366C950.447 373.454 949.991 372.332 949.991 371C949.991 369.668 950.447 368.546 951.359 367.634C952.271 366.722 953.393 366.266 954.725 366.266C956.057 366.266 957.179 366.722 958.091 367.634C959.015 368.558 959.477 369.68 959.477 371C959.477 372.32 959.015 373.442 958.091 374.366ZM954.725 374.204C955.625 374.204 956.381 373.898 956.993 373.286C957.605 372.674 957.911 371.912 957.911 371C957.911 370.088 957.605 369.326 956.993 368.714C956.381 368.102 955.625 367.796 954.725 367.796C953.837 367.796 953.087 368.102 952.475 368.714C951.863 369.326 951.557 370.088 951.557 371C951.557 371.912 951.863 372.674 952.475 373.286C953.087 373.898 953.837 374.204 954.725 374.204ZM967.389 375.5H965.823V362.36H967.389V375.5ZM970.57 364.862C970.27 364.862 970.018 364.76 969.814 364.556C969.61 364.352 969.508 364.106 969.508 363.818C969.508 363.53 969.61 363.284 969.814 363.08C970.018 362.864 970.27 362.756 970.57 362.756C970.858 362.756 971.104 362.864 971.308 363.08C971.512 363.284 971.614 363.53 971.614 363.818C971.614 364.106 971.512 364.352 971.308 364.556C971.104 364.76 970.858 364.862 970.57 364.862ZM971.344 375.5H969.778V366.5H971.344V375.5ZM978.359 362.666V364.178C976.775 364.046 975.983 364.73 975.983 366.23V366.5H978.359V368.012H975.983V375.5H974.417V368.012H972.977V366.5H974.417V366.23C974.417 365.006 974.759 364.088 975.443 363.476C976.127 362.852 977.099 362.582 978.359 362.666ZM987.699 371.72H980.157C980.313 372.512 980.679 373.136 981.255 373.592C981.831 374.036 982.551 374.258 983.415 374.258C984.603 374.258 985.467 373.82 986.007 372.944L987.339 373.7C986.451 375.056 985.131 375.734 983.379 375.734C981.963 375.734 980.799 375.29 979.887 374.402C978.999 373.49 978.555 372.356 978.555 371C978.555 369.632 978.993 368.504 979.869 367.616C980.745 366.716 981.879 366.266 983.271 366.266C984.591 366.266 985.665 366.734 986.493 367.67C987.333 368.582 987.753 369.698 987.753 371.018C987.753 371.246 987.735 371.48 987.699 371.72ZM983.271 367.742C982.443 367.742 981.747 367.976 981.183 368.444C980.631 368.912 980.289 369.548 980.157 370.352H986.169C986.037 369.524 985.707 368.882 985.179 368.426C984.651 367.97 984.015 367.742 983.271 367.742ZM989.823 375.698C989.499 375.698 989.223 375.584 988.995 375.356C988.767 375.128 988.653 374.852 988.653 374.528C988.653 374.204 988.767 373.928 988.995 373.7C989.223 373.472 989.499 373.358 989.823 373.358C990.159 373.358 990.435 373.472 990.651 373.7C990.879 373.928 990.993 374.204 990.993 374.528C990.993 374.852 990.879 375.128 990.651 375.356C990.435 375.584 990.159 375.698 989.823 375.698Z" fill="white"/>
<rect x="633" y="448" width="174" height="55" stroke="white"/>
<path d="M666.7 481V469.8H668.188V481H666.7ZM678.031 478.152V469.8H679.519V481H678.319L672.559 472.632V481H671.071V469.8H672.271L678.031 478.152ZM693.402 475.4C693.402 476.936 692.874 478.264 691.818 479.384L693.05 480.616L692.026 481.544L690.762 480.264C689.781 480.893 688.725 481.208 687.594 481.208C685.994 481.208 684.629 480.643 683.498 479.512C682.368 478.381 681.802 477.011 681.802 475.4C681.802 473.789 682.368 472.419 683.498 471.288C684.629 470.157 685.994 469.592 687.594 469.592C689.194 469.592 690.56 470.157 691.69 471.288C692.832 472.429 693.402 473.8 693.402 475.4ZM687.594 479.752C688.373 479.752 689.077 479.571 689.706 479.208L687.466 476.952L688.49 476.04L690.794 478.344C691.541 477.533 691.914 476.552 691.914 475.4C691.914 474.173 691.493 473.139 690.65 472.296C689.818 471.453 688.8 471.032 687.594 471.032C686.389 471.032 685.365 471.453 684.522 472.296C683.69 473.149 683.274 474.184 683.274 475.4C683.274 476.616 683.69 477.645 684.522 478.488C685.365 479.331 686.389 479.752 687.594 479.752ZM695.527 477.24V469.8H697.015V477.176C697.015 477.976 697.25 478.605 697.719 479.064C698.199 479.523 698.871 479.752 699.735 479.752C700.599 479.752 701.266 479.523 701.735 479.064C702.215 478.605 702.455 477.976 702.455 477.176V469.8H703.927V477.24C703.927 478.456 703.538 479.421 702.759 480.136C701.981 480.851 700.973 481.208 699.735 481.208C698.487 481.208 697.474 480.851 696.695 480.136C695.917 479.421 695.527 478.456 695.527 477.24ZM706.682 481V469.8H708.17V481H706.682ZM719.341 481H717.693L715.181 476.712H712.541V481H711.053V469.8H715.533C716.493 469.8 717.314 470.141 717.997 470.824C718.68 471.496 719.021 472.312 719.021 473.272C719.021 473.997 718.802 474.659 718.365 475.256C717.917 475.864 717.362 476.285 716.701 476.52L719.341 481ZM715.533 471.192H712.541V475.368H715.533C716.088 475.368 716.557 475.165 716.941 474.76C717.336 474.355 717.533 473.859 717.533 473.272C717.533 472.685 717.336 472.195 716.941 471.8C716.557 471.395 716.088 471.192 715.533 471.192ZM722.802 476.04V479.592H728.002V481H721.314V469.8H727.922V471.208H722.802V474.648H727.522V476.04H722.802ZM741.719 478.152V469.8H743.207V481H742.007L736.247 472.632V481H734.759V469.8H735.959L741.719 478.152ZM745.49 475.4C745.49 473.779 746.05 472.408 747.17 471.288C748.29 470.157 749.661 469.592 751.282 469.592C752.904 469.592 754.275 470.157 755.394 471.288C756.525 472.408 757.09 473.779 757.09 475.4C757.09 477.011 756.525 478.381 755.394 479.512C754.275 480.643 752.904 481.208 751.282 481.208C749.661 481.208 748.29 480.643 747.17 479.512C746.05 478.371 745.49 477 745.49 475.4ZM755.602 475.4C755.602 474.163 755.186 473.128 754.354 472.296C753.544 471.453 752.52 471.032 751.282 471.032C750.056 471.032 749.027 471.453 748.194 472.296C747.373 473.139 746.962 474.173 746.962 475.4C746.962 476.616 747.373 477.651 748.194 478.504C749.027 479.336 750.056 479.752 751.282 479.752C752.52 479.752 753.544 479.336 754.354 478.504C755.186 477.651 755.602 476.616 755.602 475.4ZM763.003 481H761.275L758.059 469.8H759.627L762.187 479.016L764.907 469.8H766.411L769.131 479.016L771.691 469.8H773.259L770.043 481H768.315L765.659 472.056L763.003 481Z" fill="white"/>
</svg>
